<svg width="128" height="19" viewBox="0 0 128 19" fill="none" xmlns="http://www.w3.org/2000/svg">
<path d="M11.928 14.808H5.256L4.152 18H0.624L6.648 1.224H10.56L16.584 18H13.032L11.928 14.808ZM11.016 12.12L8.592 5.112L6.168 12.12H11.016ZM22.7477 7.464V13.896C22.7477 14.344 22.8517 14.672 23.0597 14.88C23.2837 15.072 23.6517 15.168 24.1637 15.168H25.7237V18H23.6117C20.7797 18 19.3637 16.624 19.3637 13.872V7.464H17.7797V4.704H19.3637V1.416H22.7477V4.704H25.7237V7.464H22.7477ZM32.0524 7.464V13.896C32.0524 14.344 32.1564 14.672 32.3644 14.88C32.5884 15.072 32.9564 15.168 33.4684 15.168H35.0284V18H32.9164C30.0844 18 28.6684 16.624 28.6684 13.872V7.464H27.0844V4.704H28.6684V1.416H32.0524V4.704H35.0284V7.464H32.0524ZM49.8051 11.064C49.8051 11.544 49.7731 11.976 49.7091 12.36H39.9891C40.0691 13.32 40.4051 14.072 40.9971 14.616C41.5891 15.16 42.3171 15.432 43.1811 15.432C44.4291 15.432 45.3171 14.896 45.8451 13.824H49.4691C49.0851 15.104 48.3491 16.16 47.2611 16.992C46.1731 17.808 44.8371 18.216 43.2531 18.216C41.9731 18.216 40.8211 17.936 39.7971 17.376C38.7891 16.8 37.9971 15.992 37.4211 14.952C36.8611 13.912 36.5811 12.712 36.5811 11.352C36.5811 9.976 36.8611 8.768 37.4211 7.728C37.9811 6.688 38.7651 5.888 39.7731 5.328C40.7811 4.768 41.9411 4.488 43.2531 4.488C44.5171 4.488 45.6451 4.76 46.6371 5.304C47.6451 5.848 48.4211 6.624 48.9651 7.632C49.5251 8.624 49.8051 9.768 49.8051 11.064ZM46.3251 10.104C46.3091 9.24 45.9971 8.552 45.3891 8.04C44.7811 7.512 44.0371 7.248 43.1571 7.248C42.3251 7.248 41.6211 7.504 41.0451 8.016C40.4851 8.512 40.1411 9.208 40.0131 10.104H46.3251ZM59.6256 4.512C61.2096 4.512 62.4896 5.016 63.4656 6.024C64.4416 7.016 64.9296 8.408 64.9296 10.2V18H61.5696V10.656C61.5696 9.6 61.3056 8.792 60.7776 8.232C60.2496 7.656 59.5296 7.368 58.6176 7.368C57.6896 7.368 56.9536 7.656 56.4096 8.232C55.8816 8.792 55.6176 9.6 55.6176 10.656V18H52.2576V4.704H55.6176V6.36C56.0656 5.784 56.6336 5.336 57.3216 5.016C58.0256 4.68 58.7936 4.512 59.6256 4.512ZM67.2607 11.304C67.2607 9.96 67.5247 8.768 68.0527 7.728C68.5968 6.688 69.3328 5.888 70.2608 5.328C71.1888 4.768 72.2208 4.488 73.3568 4.488C74.2208 4.488 75.0448 4.68 75.8288 5.064C76.6128 5.432 77.2368 5.928 77.7008 6.552V0.24H81.1088V18H77.7008V16.032C77.2848 16.688 76.7008 17.216 75.9488 17.616C75.1968 18.016 74.3248 18.216 73.3328 18.216C72.2128 18.216 71.1888 17.928 70.2608 17.352C69.3328 16.776 68.5968 15.968 68.0527 14.928C67.5247 13.872 67.2607 12.664 67.2607 11.304ZM77.7248 11.352C77.7248 10.536 77.5648 9.84 77.2448 9.264C76.9248 8.672 76.4928 8.224 75.9488 7.92C75.4048 7.6 74.8208 7.44 74.1968 7.44C73.5728 7.44 72.9968 7.592 72.4688 7.896C71.9408 8.2 71.5088 8.648 71.1728 9.24C70.8528 9.816 70.6928 10.504 70.6928 11.304C70.6928 12.104 70.8528 12.808 71.1728 13.416C71.5088 14.008 71.9408 14.464 72.4688 14.784C73.0128 15.104 73.5888 15.264 74.1968 15.264C74.8208 15.264 75.4048 15.112 75.9488 14.808C76.4928 14.488 76.9248 14.04 77.2448 13.464C77.5648 12.872 77.7248 12.168 77.7248 11.352ZM102.325 6.432C102.325 7.328 102.109 8.168 101.677 8.952C101.261 9.736 100.597 10.368 99.6851 10.848C98.7891 11.328 97.6531 11.568 96.2771 11.568H93.4691V18H90.1091V1.248H96.2771C97.5731 1.248 98.6771 1.472 99.5891 1.92C100.501 2.368 101.181 2.984 101.629 3.768C102.093 4.552 102.325 5.44 102.325 6.432ZM96.1331 8.856C97.0611 8.856 97.7491 8.648 98.1971 8.232C98.6451 7.8 98.8691 7.2 98.8691 6.432C98.8691 4.8 97.9571 3.984 96.1331 3.984H93.4691V8.856H96.1331ZM108.071 6.768C108.503 6.064 109.063 5.512 109.751 5.112C110.455 4.712 111.255 4.512 112.151 4.512V8.04H111.263C110.207 8.04 109.407 8.288 108.863 8.784C108.335 9.28 108.071 10.144 108.071 11.376V18H104.711V4.704H108.071V6.768ZM120.318 18.216C119.038 18.216 117.886 17.936 116.862 17.376C115.838 16.8 115.03 15.992 114.438 14.952C113.862 13.912 113.574 12.712 113.574 11.352C113.574 9.992 113.87 8.792 114.462 7.752C115.07 6.712 115.894 5.912 116.934 5.352C117.974 4.776 119.134 4.488 120.414 4.488C121.694 4.488 122.854 4.776 123.894 5.352C124.934 5.912 125.75 6.712 126.342 7.752C126.95 8.792 127.254 9.992 127.254 11.352C127.254 12.712 126.942 13.912 126.318 14.952C125.71 15.992 124.878 16.8 123.822 17.376C122.782 17.936 121.614 18.216 120.318 18.216ZM120.318 15.288C120.926 15.288 121.494 15.144 122.022 14.856C122.566 14.552 122.998 14.104 123.318 13.512C123.638 12.92 123.798 12.2 123.798 11.352C123.798 10.088 123.462 9.12 122.79 8.448C122.134 7.76 121.326 7.416 120.366 7.416C119.406 7.416 118.598 7.76 117.942 8.448C117.302 9.12 116.982 10.088 116.982 11.352C116.982 12.616 117.294 13.592 117.918 14.28C118.558 14.952 119.358 15.288 120.318 15.288Z" fill="#79B4D1"/>
</svg>
