<svg width="52" height="52" viewBox="0 0 52 52" fill="none" xmlns="http://www.w3.org/2000/svg">
<path d="M37.3684 2H47.4737C48.869 2 50 3.13107 50 4.52631V14.6316M50 37.3684V47.4737C50 48.8688 48.869 50 47.4737 50H37.3684M14.6316 50H4.52632C3.13107 50 2 48.8688 2 47.4737V37.3684M2 14.6316V4.52631C2 3.13107 3.13107 2 4.52632 2H14.6316" stroke="#79B4D1" stroke-width="2.66667" stroke-linecap="round" stroke-linejoin="round"/>
<path d="M25.9987 43.6844C34.3702 43.6844 41.1566 35.767 41.1566 26.0002C41.1566 16.2335 34.3702 8.31604 25.9987 8.31604C17.6273 8.31604 10.8408 16.2335 10.8408 26.0002C10.8408 35.767 17.6273 43.6844 25.9987 43.6844Z" stroke="#79B4D1" stroke-width="2.66667"/>
<path d="M3.26367 26.0006H48.7374" stroke="#79B4D1" stroke-width="2.66667" stroke-linecap="round"/>
<path d="M21.0361 33.7128C22.6377 34.8966 24.2926 35.4885 26.0007 35.4885C27.7089 35.4885 29.4092 34.8966 31.1016 33.7128" stroke="#79B4D1" stroke-width="2.66667" stroke-linecap="round"/>
</svg>
