<svg width="155" height="84" viewBox="0 0 155 84" fill="none" xmlns="http://www.w3.org/2000/svg">
<g clip-path="url(#clip0_1857_7182)">
<path d="M94.1507 7.31903C98.8654 10.4362 102.36 14.5944 104.042 19.4813C104.091 19.6143 104.14 19.7473 104.191 19.8843C105.36 23.1183 105.154 26.4482 105.053 29.7925C105.252 29.8545 105.451 29.9166 105.657 29.9806C106.443 30.2686 106.682 30.541 107.138 31.1485C107.264 31.3116 107.391 31.4747 107.521 31.6427C108.903 33.9138 107.979 37.0118 107.147 39.316C106.304 41.5014 105.326 43.568 103.789 45.4739C103.646 45.6517 103.504 45.8295 103.357 46.0127C102.807 46.5212 102.468 46.6951 101.766 47.0003C100.369 47.7065 100.162 48.7809 99.7601 50.0522C99.1809 51.6926 98.5771 53.2254 97.5641 54.711C97.4761 54.8404 97.3882 54.9698 97.2976 55.1031C96.9177 55.6386 96.5385 56.1357 96.0566 56.6099C94.8746 57.7898 94.7232 58.6754 94.7993 60.2022C94.8053 60.41 94.8113 60.6178 94.8175 60.8318C94.9791 64.7148 96.1359 68.0068 99.5662 70.723C103.645 73.6945 108.966 75.5864 113.9 77.2665C114.131 77.3482 114.363 77.4299 114.601 77.5141C115.144 77.6898 115.672 77.8151 116.238 77.9244C117.186 78.1258 117.186 78.1258 117.439 78.3406C117.518 78.9582 117.518 78.9582 117.439 79.6295C116.885 80.1034 116.534 80.2612 115.753 80.355C115.364 80.3554 115.364 80.3554 114.968 80.3558C114.67 80.3576 114.372 80.3594 114.064 80.3613C113.575 80.3593 113.575 80.3593 113.076 80.3573C112.729 80.3582 112.381 80.3594 112.034 80.3608C111.09 80.3637 110.147 80.3626 109.204 80.3605C108.217 80.3589 107.23 80.3604 106.244 80.3614C104.587 80.3626 102.93 80.361 101.273 80.358C99.3569 80.3545 97.4406 80.3556 95.5243 80.3591C93.8794 80.3621 92.2346 80.3625 90.5898 80.3608C89.6071 80.3598 88.6245 80.3597 87.6419 80.3618C86.7184 80.3636 85.795 80.3624 84.8715 80.3586C84.3702 80.3574 83.8689 80.3593 83.3677 80.3613C83.0703 80.3595 82.773 80.3577 82.4666 80.3558C82.0782 80.3554 82.0782 80.3554 81.6819 80.355C81.0387 80.2739 81.0387 80.2739 80.5753 79.9877C80.1228 79.438 80.199 78.9914 80.2804 78.3406C80.888 77.8243 81.0251 77.8562 81.8544 77.8512C82.1904 77.8476 82.1904 77.8476 82.5332 77.8439C82.7796 77.8434 83.026 77.843 83.2798 77.8425C83.5388 77.8403 83.7977 77.8382 84.0645 77.8359C84.9234 77.8293 85.7824 77.8257 86.6413 77.822C87.2357 77.818 87.83 77.8138 88.4244 77.8094C89.991 77.7984 91.5577 77.7899 93.1244 77.7819C94.7221 77.7733 96.3199 77.7623 97.9176 77.7515C101.054 77.7307 104.191 77.7126 107.328 77.6962C107.056 77.5822 106.784 77.4683 106.505 77.3509C106.141 77.1978 105.778 77.0446 105.415 76.8915C105.237 76.8168 105.059 76.7421 104.875 76.6652C99.5231 74.4036 94.613 71.3352 92.5401 66.3915C91.7702 64.4325 91.7547 62.5544 91.9082 60.511C91.7414 60.511 91.5745 60.511 91.4026 60.511C91.3122 60.6954 91.3122 60.6954 91.22 60.8835C89.3598 63.6874 83.8759 66.4024 80.2498 67.2877C76.2948 68.0983 72.9956 66.9606 69.6088 65.2581C67.22 64.007 65.2645 62.4443 63.3443 60.7258C63.3072 61.1461 63.3072 61.1461 63.2693 61.575C62.7959 66.4637 60.9489 70.0547 56.4877 73.3059C54.2529 74.8057 51.8236 75.9617 49.2463 76.9757C49.0704 77.0451 48.8945 77.1146 48.7133 77.1862C48.2821 77.3564 47.8507 77.5263 47.4193 77.6962C47.6257 77.6972 47.6257 77.6972 47.8364 77.6983C51.1822 77.7158 54.528 77.7356 57.8738 77.7579C59.4918 77.7687 61.1098 77.7786 62.7278 77.7868C64.2881 77.7947 65.8484 77.8046 67.4087 77.816C68.0052 77.82 68.6016 77.8233 69.1981 77.8258C70.031 77.8294 70.8638 77.8356 71.6967 77.8425C71.9454 77.843 72.1942 77.8434 72.4504 77.8439C72.6766 77.8463 72.9027 77.8487 73.1357 77.8512C73.3329 77.8523 73.53 77.8535 73.7331 77.8548C74.2137 77.911 74.2137 77.911 74.7193 78.3406C74.8141 78.9716 74.8141 78.9716 74.7193 79.6295C74.165 80.1021 73.8143 80.2612 73.0332 80.355C72.6446 80.3554 72.6446 80.3554 72.2482 80.3558C71.9501 80.3576 71.6521 80.3594 71.345 80.3613C70.8559 80.3593 70.8559 80.3593 70.3569 80.3573C70.0093 80.3582 69.6617 80.3594 69.3141 80.3608C68.3709 80.3637 67.4278 80.3626 66.4846 80.3605C65.4978 80.3589 64.5111 80.3604 63.5243 80.3614C61.8675 80.3626 60.2106 80.361 58.5538 80.358C56.6375 80.3545 54.7212 80.3556 52.8048 80.3591C51.16 80.3621 49.5152 80.3625 47.8703 80.3608C46.8877 80.3598 45.9051 80.3597 44.9225 80.3618C43.999 80.3636 43.0755 80.3624 42.152 80.3586C41.6508 80.3574 41.1495 80.3593 40.6483 80.3613C40.3509 80.3595 40.0536 80.3577 39.7472 80.3558C39.4882 80.3555 39.2293 80.3553 38.9625 80.355C38.3193 80.2739 38.3193 80.2739 37.8568 79.9877C37.3982 79.4324 37.4623 78.9975 37.561 78.3406C38.3355 77.9018 38.9287 77.7376 39.8182 77.5225C41.4915 77.0958 43.075 76.5668 44.6704 75.9642C45.0781 75.8106 45.0781 75.8106 45.494 75.6539C50.9769 73.5468 57.026 70.9139 59.2999 65.8814C60.1986 63.4258 60.9325 59.7294 59.7412 57.282C59.3232 56.7846 59.3232 56.7846 58.8299 56.3305C58.1086 55.6034 57.6196 54.8133 57.1039 53.9726C57.0063 53.8139 56.9087 53.6553 56.8081 53.4919C55.8834 51.9606 55.1056 50.4662 54.8447 48.7499C54.6954 48.104 54.5685 47.8879 53.9668 47.4585C53.5218 47.2137 53.0747 46.9716 52.6259 46.7318C50.5793 45.4894 49.6405 43.2937 48.6832 41.3925C46.0998 41.9658 43.6619 42.8711 41.1972 43.73C36.3779 45.4058 32.5741 46.6427 27.4499 45.0443C27.1286 44.9472 26.8074 44.8502 26.4862 44.7531C24.7079 44.2079 22.9515 43.6138 21.2094 42.9901C21.0428 42.9325 20.8762 42.8748 20.7045 42.8153C19.1416 42.2423 18.0983 41.3944 17.3388 40.1036C17.0578 39.196 17.0532 38.3058 17.0613 37.3739C17.0617 37.2181 17.062 37.0623 17.0624 36.9017C17.0638 36.4071 17.067 35.9125 17.0702 35.4179C17.0715 35.0813 17.0726 34.7447 17.0736 34.408C17.0764 33.5856 17.0808 32.7631 17.086 31.9406C16.9188 31.9192 16.7515 31.8977 16.5793 31.8756C15.615 31.6848 14.7286 31.3713 13.8186 31.0469C13.6297 30.9805 13.4407 30.914 13.246 30.8456C12.6455 30.6342 12.0457 30.4214 11.4459 30.2087C11.0376 30.0647 10.6293 29.9208 10.221 29.7769C9.22262 29.4253 8.22518 29.0718 7.22765 28.7184C7.14424 30.7033 7.06082 32.6882 6.97487 34.7332C7.22512 34.7332 7.47537 34.7332 7.73321 34.7332C7.73321 35.2294 7.73321 35.7256 7.73321 36.2369C7.48296 36.2369 7.23271 36.2369 6.97487 36.2369C6.98276 36.8529 6.98276 36.8529 7.22765 37.5258C7.72282 37.825 8.22964 38.1106 8.74432 38.3851C9.62257 39.3155 9.88308 39.9382 9.88083 41.1248C9.88099 41.3968 9.88116 41.6689 9.88132 41.9492C9.87627 42.2307 9.87122 42.5122 9.86602 42.8022C9.86781 43.0845 9.8696 43.3668 9.87145 43.6577C9.85332 45.9837 9.85332 45.9837 8.9971 46.9776C7.89764 47.8208 6.99373 47.9751 5.55991 47.9183C4.62586 47.7931 4.1179 47.5289 3.43599 46.9776C2.5552 45.6454 2.5551 44.4153 2.56706 42.9096C2.56201 42.6849 2.55696 42.4602 2.55176 42.2286C2.55279 40.8386 2.72584 39.7512 3.68876 38.5999C4.75043 37.7406 4.75043 37.7406 5.45821 37.7406C5.45821 37.2444 5.45821 36.7482 5.45821 36.2369C5.20796 36.2369 4.95771 36.2369 4.69987 36.2369C4.69987 35.7407 4.69987 35.2445 4.69987 34.7332C4.95012 34.7332 5.20037 34.7332 5.45821 34.7332C5.45821 32.4648 5.45821 30.1963 5.45821 27.8591C5.04112 27.7882 4.62404 27.7173 4.19432 27.6443C4.1109 27.3608 4.02749 27.0772 3.94154 26.7851C5.80322 25.9612 7.70167 25.2558 9.64484 24.5832C10.124 24.4163 10.6031 24.249 11.0821 24.0818C11.427 23.9614 11.772 23.8412 12.1171 23.721C13.5339 23.2272 14.9484 22.7286 16.3622 22.2286C24.234 19.4456 24.234 19.4456 27.908 18.1925C28.161 18.1059 28.4139 18.0193 28.6745 17.9301C28.9028 17.8528 29.1312 17.7754 29.3664 17.6957C29.5599 17.6301 29.7534 17.5644 29.9528 17.4968C33.3971 16.4343 36.7178 18.0102 39.8646 19.1591C41.5991 19.79 43.3472 20.3924 45.0954 20.9952C45.6445 21.1846 46.1934 21.3743 46.7423 21.564C47.0838 21.6818 47.4253 21.7996 47.7669 21.9173C48.0712 22.0222 48.3756 22.1272 48.6891 22.2353C49.1874 22.4032 49.6913 22.5595 50.1999 22.7036C50.2188 22.5779 50.2377 22.4521 50.2571 22.3226C51.0292 18.0386 53.1511 14.1387 56.5193 10.8888C56.6956 10.7107 56.8719 10.5326 57.0535 10.3492C66.2479 1.28658 82.9812 0.308349 94.1507 7.31903ZM59.8054 11.5332C59.4999 11.7886 59.4999 11.7886 59.1883 12.0493C54.8081 15.9399 52.6747 21.334 52.6802 26.6642C52.6801 26.8287 52.6799 26.9931 52.6798 27.1626C52.6983 28.9156 52.944 30.6366 53.2332 32.3702C52.9829 32.2993 52.7327 32.2285 52.4749 32.1554C51.5901 32.0659 51.5901 32.0659 50.7054 32.1554C50.0686 32.6604 49.953 32.9738 49.8464 33.7128C49.8731 37.342 51.0335 41.2898 53.7388 44.1851C53.8899 44.3667 54.0411 44.5484 54.1969 44.7355C55.0792 45.2282 55.9997 45.1113 57.0249 45.0443C57.0314 45.1645 57.0379 45.2847 57.0446 45.4085C57.4803 50.6427 60.7288 54.8679 64.861 58.5776C65.0839 58.7834 65.3067 58.9891 65.5364 59.2011C68.4242 61.8088 72.8511 64.9561 77.2629 65.0892C82.4486 65.0173 87.3122 61.1025 90.7466 58.1512C94.8797 54.4679 97.0628 50.2086 98.2276 45.2591C98.4414 45.2857 98.6551 45.3123 98.8754 45.3397C100.122 45.2241 100.698 44.7545 101.514 43.9702C103.806 41.29 105.084 38.0433 105.179 34.7466C105.187 34.5915 105.195 34.4364 105.203 34.2766C105.203 33.4257 105.082 33.0472 104.463 32.3677C103.821 31.8677 103.821 31.8677 102.983 31.9675C102.293 32.132 102.293 32.132 101.767 32.3702C101.802 31.9182 101.839 31.4662 101.877 31.0142C101.908 30.6367 101.908 30.6367 101.939 30.2515C102.019 29.5776 102.019 29.5776 102.272 28.9332C102.469 26.6496 102.386 24.2889 101.767 22.0591C101.714 21.867 101.662 21.6748 101.609 21.4768C99.9817 15.9938 96.2217 11.221 90.4725 8.29503C90.1955 8.15852 89.9186 8.022 89.6332 7.88135C89.3272 7.72642 89.3272 7.72642 89.0151 7.56836C79.2529 3.01563 67.4858 5.09585 59.8054 11.5332Z" fill="#8291E2"/>
<path d="M111.404 48.0786C112.13 48.2665 112.13 48.2665 112.636 48.6961C112.705 49.3445 112.658 49.9772 112.636 50.6295C113.387 50.7004 114.137 50.7713 114.911 50.8443C114.895 50.5386 114.88 50.2329 114.863 49.9179C114.817 49.0176 114.817 49.0176 115.245 48.53C115.891 48.129 116.41 48.1964 117.186 48.2665C117.691 48.6961 117.691 48.6961 117.725 49.3658C117.724 49.6322 117.724 49.8985 117.723 50.173C117.732 51.2098 117.732 51.2098 118.347 52.0325C118.861 52.2207 118.861 52.2207 119.408 52.3648C120.546 52.7687 121.444 53.7847 121.989 54.711C122.239 54.711 122.489 54.711 122.747 54.711C123.112 54.3742 123.112 54.3742 123.442 53.9323C125.17 51.8961 127.478 50.8004 130.375 50.2851C131.792 50.1158 133.218 50.1116 134.647 50.1084C135.199 50.1059 135.75 50.0952 136.302 50.0845C136.656 50.0824 137.01 50.0809 137.365 50.0799C137.682 50.077 138 50.0741 138.328 50.0711C139.401 50.2337 139.772 50.5583 140.441 51.2739C140.565 51.8017 140.565 51.8017 140.52 52.3077C140.509 52.4775 140.498 52.6472 140.486 52.8221C140.471 52.9492 140.456 53.0763 140.441 53.2073C140.754 53.1895 141.067 53.1718 141.389 53.1536C142.15 53.1105 142.389 53.1568 142.995 53.5688C143.582 54.1783 143.601 54.4615 143.6 55.2406C143.602 55.4791 143.604 55.7176 143.606 55.9634C143.603 56.2241 143.6 56.4848 143.598 56.7534C143.598 57.0287 143.599 57.304 143.6 57.5877C143.603 58.3422 143.599 59.0966 143.594 59.8512C143.589 60.6409 143.59 61.4306 143.591 62.2204C143.59 63.5466 143.586 64.8727 143.579 66.1989C143.571 67.732 143.568 69.2651 143.569 70.7982C143.569 72.4306 143.565 74.063 143.561 75.6953C143.56 76.1656 143.559 76.6359 143.559 77.1062C143.558 77.9825 143.554 78.8588 143.548 79.7352C143.548 79.9959 143.549 80.2566 143.549 80.5252C143.547 80.7638 143.545 81.0023 143.542 81.248C143.541 81.4552 143.541 81.6624 143.54 81.8759C143.471 82.4559 143.344 82.7957 142.969 83.2813C142.059 83.797 141.652 83.7654 140.57 83.767C140.403 83.7678 140.235 83.7686 140.063 83.7695C139.501 83.7717 138.939 83.7708 138.378 83.77C137.975 83.7709 137.573 83.772 137.171 83.7733C136.077 83.7762 134.984 83.7763 133.89 83.7757C132.978 83.7755 132.066 83.7766 131.153 83.7776C129.002 83.78 126.851 83.7801 124.7 83.7788C122.478 83.7775 120.257 83.7801 118.035 83.7847C116.13 83.7885 114.224 83.7898 112.318 83.7891C111.179 83.7887 110.04 83.7893 108.902 83.7922C107.831 83.7949 106.76 83.7945 105.69 83.7917C105.296 83.7912 104.903 83.7918 104.51 83.7936C103.973 83.7958 103.438 83.7941 102.902 83.7913C102.451 83.7914 102.451 83.7914 101.992 83.7915C101.261 83.711 101.261 83.711 100.795 83.424C100.23 82.7329 100.221 82.1205 100.234 81.3077C100.236 81.1142 100.238 80.9206 100.241 80.7212C100.244 80.5736 100.247 80.426 100.25 80.2739C100.451 80.2722 100.652 80.2704 100.859 80.2687C102.752 80.2519 104.645 80.2332 106.538 80.2122C107.512 80.2014 108.485 80.1915 109.458 80.1833C110.398 80.1754 111.337 80.1654 112.276 80.154C112.634 80.1501 112.993 80.1468 113.351 80.1443C113.853 80.1407 114.355 80.1342 114.856 80.1276C115.142 80.1247 115.428 80.1219 115.722 80.1189C116.48 80.102 116.48 80.102 117.186 79.6295C117.249 78.9671 117.249 78.9671 117.186 78.3406C116.97 78.293 116.754 78.2453 116.532 78.1963C110.48 76.7328 104.837 74.1427 99.7441 71.0369C99.9944 70.9306 99.9944 70.9306 100.25 70.8221C100.247 70.6172 100.244 70.4124 100.241 70.2013C100.216 68.2702 100.197 66.339 100.184 64.4078C100.178 63.4149 100.169 62.4221 100.154 61.4293C100.141 60.471 100.133 59.5129 100.13 58.5545C100.127 58.1891 100.123 57.8236 100.116 57.4582C100.107 56.9459 100.106 56.434 100.106 55.9217C100.102 55.7708 100.097 55.62 100.092 55.4647C100.103 54.644 100.229 54.3029 100.838 53.6527C101.594 53.1543 102.086 53.0484 103.03 52.9924C102.999 52.5937 102.999 52.5937 102.967 52.1869C102.974 51.5525 103.005 51.3104 103.394 50.7503C104.918 49.9606 107.107 50.1093 108.844 50.1998C109.094 50.2707 109.345 50.3416 109.602 50.4147C109.582 50.1843 109.561 49.9539 109.539 49.7165C109.602 48.911 109.602 48.911 110.013 48.3739C110.614 48.0517 110.614 48.0517 111.404 48.0786Z" fill="#8C9DEC"/>
<path d="M37.8139 48.2667C38.6671 48.2399 38.6671 48.2399 39.5834 48.2667C40.0889 48.6964 40.0889 48.6964 40.1497 49.2699C40.1486 49.5132 40.1475 49.7565 40.1463 50.0072C40.1463 50.2824 40.1463 50.5576 40.1462 50.8411C40.1436 51.1427 40.141 51.4442 40.1383 51.7457C40.1374 52.0533 40.1367 52.361 40.1361 52.6686C40.1342 53.4787 40.1292 54.2888 40.1237 55.099C40.1185 55.9255 40.1162 56.7519 40.1136 57.5784C40.1082 59.2005 40.0996 60.8225 40.0889 62.4445C40.3429 62.4431 40.3429 62.4431 40.602 62.4416C42.3611 62.4321 44.1201 62.4256 45.8792 62.4209C46.5361 62.4187 47.193 62.4158 47.8498 62.4121C48.7929 62.4069 49.7359 62.4044 50.6789 62.4025C50.9736 62.4003 51.2683 62.3981 51.5719 62.3958C51.8451 62.3958 52.1183 62.3958 52.3998 62.3957C52.761 62.3943 52.761 62.3943 53.1295 62.3928C53.7389 62.4445 53.7389 62.4445 54.4973 62.8741C54.7139 64.0643 54.7352 65.2567 54.7628 66.4597C54.7753 66.8591 54.7959 67.2584 54.825 67.6571C55.057 70.8582 55.057 70.8582 54.1428 71.8521C53.2492 72.5337 52.2397 73.0007 51.1581 73.4335C50.6185 73.6498 50.1168 73.9069 49.6086 74.172C49.307 74.311 49.0038 74.4475 48.6992 74.5815C48.5283 74.6576 48.3573 74.7336 48.1812 74.812C44.8752 76.2449 41.3922 77.498 37.8139 78.3408C37.7718 78.9673 37.7718 78.9673 37.8139 79.6297C38.5087 80.2201 38.9119 80.1182 39.8852 80.1278C40.2141 80.1321 40.543 80.1363 40.8819 80.1407C41.2423 80.1433 41.6027 80.1458 41.9631 80.1483C42.3307 80.1523 42.6984 80.1565 43.066 80.1609C44.0343 80.1719 45.0025 80.1804 45.9708 80.1884C46.9586 80.197 47.9464 80.208 48.9342 80.2188C50.8728 80.2396 52.8114 80.2577 54.7501 80.2741C54.759 80.6187 54.7655 80.9633 54.7708 81.3079C54.7766 81.5958 54.7766 81.5958 54.7825 81.8894C54.7404 82.5813 54.5148 82.9695 53.9917 83.4964C53.0926 84.0057 52.7107 83.9804 51.6441 83.982C51.3109 83.9835 50.9778 83.985 50.6345 83.9866C50.2645 83.9861 49.8944 83.9856 49.5243 83.985C49.1352 83.9859 48.7462 83.987 48.3571 83.9883C47.2995 83.9912 46.2419 83.9913 45.1843 83.9908C44.3017 83.9905 43.4192 83.9916 42.5366 83.9926C40.4543 83.995 38.3721 83.9951 36.2899 83.9938C34.1414 83.9925 31.9929 83.9951 29.8444 83.9997C28.0003 84.0035 26.1563 84.0048 24.3122 84.0041C23.2106 84.0037 22.109 84.0043 21.0074 84.0073C19.9713 84.01 18.9352 84.0095 17.899 84.0067C17.5188 84.0062 17.1386 84.0068 16.7585 84.0086C16.2392 84.0108 15.7201 84.0091 15.2008 84.0064C14.9103 84.0064 14.6198 84.0064 14.3205 84.0065C13.2207 83.892 12.5941 83.5546 11.8315 82.8844C11.448 82.3061 11.4284 81.9204 11.4254 81.2578C11.4225 81.0214 11.4196 80.785 11.4167 80.5415C11.4174 80.2831 11.4181 80.0247 11.4189 79.7585C11.4168 79.4857 11.4146 79.2128 11.4124 78.9317C11.4068 78.1838 11.4061 77.436 11.4065 76.6881C11.4066 76.0635 11.4044 75.4389 11.4023 74.8143C11.3974 73.3407 11.3967 71.8671 11.3984 70.3934C11.4001 68.8737 11.3943 67.3541 11.3849 65.8344C11.3772 64.5291 11.3743 63.2238 11.3753 61.9184C11.3758 61.1391 11.3744 60.3598 11.3682 59.5804C11.3616 58.7112 11.3651 57.8423 11.3695 56.9731C11.3662 56.7151 11.3628 56.4572 11.3594 56.1915C11.3801 54.4563 11.3801 54.4563 12.1065 53.5805C12.9725 53.1071 13.5481 53.1233 14.5584 53.2075C14.5364 53.0168 14.5364 53.0168 14.514 52.8223C14.5025 52.6526 14.4911 52.4828 14.4794 52.3079C14.4647 52.1409 14.4501 51.974 14.435 51.8019C14.6216 51.0039 15.0914 50.7086 15.8223 50.2001C16.6602 50.0679 16.6602 50.0679 17.6085 50.0725C17.7791 50.0725 17.9496 50.0725 18.1254 50.0725C18.4859 50.0736 18.8465 50.0774 19.2069 50.0836C19.7485 50.0925 20.2893 50.0925 20.8309 50.091C24.3043 50.1045 28.1637 50.5917 30.7362 52.7778C31.2119 53.3391 31.6692 53.9068 32.1136 54.4863C32.243 54.6314 32.3723 54.7765 32.5056 54.926C32.6724 54.926 32.8393 54.926 33.0112 54.926C33.3509 54.4979 33.6874 54.068 34.0223 53.6371C34.7075 52.9782 35.1232 52.611 36.1077 52.3214C36.8606 51.9855 36.8606 51.9855 36.9282 51.3992C36.9607 50.9814 36.9853 50.5631 37.0023 50.1447C37.0723 49.3714 37.3377 48.9177 37.8139 48.2667Z" fill="#E3E8FD"/>
<path d="M94.1507 7.31903C98.8654 10.4362 102.36 14.5944 104.042 19.4813C104.091 19.6143 104.14 19.7473 104.191 19.8843C105.36 23.1183 105.154 26.4482 105.053 29.7925C105.252 29.8545 105.451 29.9166 105.657 29.9806C106.443 30.2686 106.682 30.541 107.138 31.1485C107.264 31.3116 107.391 31.4747 107.521 31.6427C108.903 33.9138 107.979 37.0118 107.147 39.316C106.304 41.5014 105.326 43.568 103.789 45.4739C103.646 45.6517 103.504 45.8295 103.357 46.0127C102.807 46.5212 102.468 46.6951 101.766 47.0003C100.369 47.7065 100.162 48.7809 99.7601 50.0522C99.181 51.6926 98.5771 53.2254 97.5641 54.711C97.4761 54.8404 97.3882 54.9698 97.2976 55.1031C96.9177 55.6386 96.5385 56.1357 96.0566 56.6099C94.8746 57.7898 94.7232 58.6754 94.7993 60.2022C94.8053 60.41 94.8113 60.6178 94.8175 60.8318C94.9791 64.7148 96.1359 68.0068 99.5662 70.723C103.645 73.6945 108.966 75.5864 113.9 77.2665C114.131 77.3482 114.363 77.4299 114.601 77.5141C115.144 77.6898 115.672 77.8151 116.238 77.9244C117.186 78.1258 117.186 78.1258 117.439 78.3406C117.518 78.9582 117.518 78.9582 117.439 79.6295C116.885 80.1034 116.534 80.2612 115.753 80.355C115.364 80.3554 115.364 80.3554 114.968 80.3558C114.67 80.3576 114.372 80.3594 114.064 80.3613C113.575 80.3593 113.575 80.3593 113.076 80.3573C112.729 80.3582 112.381 80.3594 112.034 80.3608C111.09 80.3637 110.147 80.3626 109.204 80.3605C108.217 80.3589 107.231 80.3604 106.244 80.3614C104.587 80.3626 102.93 80.361 101.273 80.358C99.3569 80.3545 97.4406 80.3556 95.5243 80.3591C93.8794 80.3621 92.2346 80.3625 90.5898 80.3608C89.6071 80.3598 88.6245 80.3597 87.6419 80.3618C86.7184 80.3636 85.795 80.3624 84.8715 80.3586C84.3702 80.3574 83.8689 80.3593 83.3677 80.3613C83.0703 80.3595 82.773 80.3577 82.4666 80.3558C82.2077 80.3555 81.9487 80.3553 81.6819 80.355C81.0388 80.2739 81.0388 80.2739 80.5753 79.9877C80.1228 79.438 80.199 78.9914 80.2804 78.3406C80.888 77.8243 81.0251 77.8562 81.8544 77.8512C82.1904 77.8476 82.1904 77.8476 82.5332 77.8439C82.7796 77.8434 83.026 77.843 83.2798 77.8425C83.5388 77.8403 83.7977 77.8382 84.0645 77.8359C84.9234 77.8293 85.7824 77.8257 86.6413 77.822C87.2357 77.818 87.83 77.8138 88.4244 77.8094C89.991 77.7984 91.5577 77.7899 93.1244 77.7819C94.7221 77.7733 96.3199 77.7623 97.9176 77.7515C101.054 77.7307 104.191 77.7126 107.328 77.6962C107.056 77.5822 106.784 77.4683 106.505 77.3509C106.141 77.1978 105.778 77.0446 105.415 76.8915C105.237 76.8168 105.059 76.7421 104.875 76.6652C99.5231 74.4036 94.613 71.3352 92.5401 66.3915C91.7702 64.4325 91.7547 62.5544 91.9082 60.511C91.7414 60.511 91.5745 60.511 91.4026 60.511C91.3424 60.6339 91.2821 60.7569 91.22 60.8835C89.3598 63.6874 83.8759 66.4024 80.2498 67.2877C76.2948 68.0983 72.9956 66.9606 69.6088 65.2581C67.22 64.007 65.2645 62.4443 63.3443 60.7258C63.3195 61.006 63.2948 61.2863 63.2693 61.575C62.7959 66.4637 60.9489 70.0547 56.4877 73.3059C54.2529 74.8057 51.8236 75.9617 49.2463 76.9757C49.0704 77.0451 48.8945 77.1146 48.7133 77.1862C48.2821 77.3564 47.8507 77.5263 47.4193 77.6962C47.6257 77.6972 47.6257 77.6972 47.8364 77.6983C51.1822 77.7158 54.528 77.7356 57.8738 77.7579C59.4918 77.7687 61.1098 77.7786 62.7278 77.7868C64.2881 77.7947 65.8484 77.8046 67.4087 77.816C68.0052 77.82 68.6016 77.8233 69.1981 77.8258C70.031 77.8294 70.8638 77.8356 71.6967 77.8425C71.9454 77.843 72.1942 77.8434 72.4504 77.8439C72.6766 77.8463 72.9027 77.8487 73.1357 77.8512C73.3329 77.8523 73.53 77.8535 73.7331 77.8548C74.2138 77.911 74.2138 77.911 74.7193 78.3406C74.8141 78.9716 74.8141 78.9716 74.7193 79.6295C74.165 80.1021 73.8143 80.2612 73.0332 80.355C72.6446 80.3554 72.6446 80.3554 72.2482 80.3558C71.9501 80.3576 71.6521 80.3594 71.345 80.3613C71.0189 80.36 70.6928 80.3587 70.3569 80.3573C70.0093 80.3582 69.6617 80.3594 69.3141 80.3608C68.3709 80.3637 67.4278 80.3626 66.4846 80.3605C65.4978 80.3589 64.5111 80.3604 63.5243 80.3614C61.8675 80.3626 60.2106 80.361 58.5538 80.358C56.6375 80.3545 54.7212 80.3556 52.8048 80.3591C51.16 80.3621 49.5152 80.3625 47.8703 80.3608C46.8877 80.3598 45.9051 80.3597 44.9225 80.3618C43.9989 80.3636 43.0755 80.3624 42.152 80.3586C41.6508 80.3574 41.1495 80.3593 40.6483 80.3613C40.3509 80.3595 40.0536 80.3577 39.7472 80.3558C39.4882 80.3555 39.2293 80.3553 38.9625 80.355C38.3193 80.2739 38.3193 80.2739 37.8568 79.9877C37.3982 79.4324 37.4623 78.9975 37.561 78.3406C38.3355 77.9018 38.9287 77.7376 39.8182 77.5225C41.4915 77.0958 43.075 76.5668 44.6703 75.9642C45.0781 75.8106 45.0781 75.8106 45.494 75.6539C50.9769 73.5468 57.026 70.9139 59.2999 65.8814C60.1986 63.4258 60.9325 59.7294 59.7412 57.282C59.3232 56.7846 59.3232 56.7846 58.8299 56.3305C58.1086 55.6034 57.6196 54.8133 57.1039 53.9726C57.0063 53.8139 56.9087 53.6553 56.8081 53.4919C55.8834 51.9606 55.1056 50.4662 54.8447 48.7499C54.6954 48.104 54.5685 47.8879 53.9668 47.4585C53.5218 47.2137 53.0747 46.9716 52.6259 46.7318C49.3764 44.7592 47.8343 40.1097 47.1665 36.8813C47.0952 36.1077 47.0851 35.3345 47.0717 34.5587C47.0576 34.2494 47.0576 34.2494 47.0431 33.9339C47.0224 32.5028 47.2934 31.5223 48.4304 30.4369C48.6618 30.3137 48.8931 30.1905 49.1315 30.0635C50.1102 29.2187 49.8586 28.0934 49.8523 26.9596C49.9788 20.9654 51.7732 15.4682 56.5193 10.8888C56.6956 10.7107 56.8719 10.5326 57.0535 10.3492C66.2479 1.28658 82.9812 0.308349 94.1507 7.31903ZM59.8054 11.5332C59.4999 11.7886 59.4999 11.7886 59.1883 12.0493C54.8081 15.9399 52.6747 21.334 52.6802 26.6642C52.6801 26.8287 52.6799 26.9931 52.6798 27.1626C52.6983 28.9156 52.944 30.6366 53.2332 32.3702C52.9829 32.2993 52.7327 32.2285 52.4749 32.1554C51.5901 32.0659 51.5901 32.0659 50.7054 32.1554C50.0686 32.6604 49.953 32.9738 49.8464 33.7128C49.8731 37.342 51.0335 41.2898 53.7388 44.1851C53.8899 44.3667 54.0411 44.5484 54.1969 44.7355C55.0792 45.2282 55.9997 45.1113 57.0249 45.0443C57.0314 45.1645 57.0379 45.2847 57.0446 45.4085C57.4803 50.6427 60.7288 54.8679 64.861 58.5776C65.0839 58.7834 65.3067 58.9891 65.5364 59.2011C68.4242 61.8088 72.8511 64.9561 77.2629 65.0892C82.4486 65.0173 87.3122 61.1025 90.7466 58.1512C94.8797 54.4679 97.0628 50.2086 98.2276 45.2591C98.4414 45.2857 98.6552 45.3123 98.8754 45.3397C100.122 45.2241 100.698 44.7545 101.514 43.9702C103.806 41.29 105.084 38.0433 105.179 34.7466C105.187 34.5915 105.195 34.4364 105.203 34.2766C105.203 33.4257 105.082 33.0472 104.463 32.3677C103.821 31.8677 103.821 31.8677 102.983 31.9675C102.293 32.132 102.293 32.132 101.767 32.3702C101.802 31.9182 101.839 31.4662 101.877 31.0142C101.908 30.6367 101.908 30.6367 101.939 30.2515C102.019 29.5776 102.019 29.5776 102.272 28.9332C102.469 26.6496 102.386 24.2889 101.767 22.0591C101.714 21.867 101.662 21.6748 101.609 21.4768C99.9817 15.9938 96.2217 11.221 90.4725 8.29503C90.1955 8.15852 89.9186 8.022 89.6332 7.88135C89.3272 7.72642 89.3272 7.72642 89.0151 7.56836C79.2529 3.01563 67.4858 5.09585 59.8054 11.5332Z" fill="#F3F3F3" fill-opacity="0.952941"/>
<path d="M130.023 19.1987C130.229 19.2726 130.436 19.3465 130.648 19.4226C133.213 20.3427 135.775 21.2704 138.336 22.1985C140.571 23.008 142.807 23.8142 145.053 24.6009C145.221 24.6601 145.39 24.7192 145.564 24.7801C147.003 25.2823 148.452 25.7623 149.905 26.2364C150.553 26.5704 150.553 26.5704 150.774 27.146C150.784 27.3105 150.795 27.475 150.805 27.6444C150.53 27.7405 150.255 27.8366 149.972 27.9356C149.597 28.0668 149.222 28.198 148.846 28.3292C148.65 28.3979 148.453 28.4667 148.25 28.5376C147.152 28.9219 146.055 29.3085 144.96 29.6986C144.142 29.9893 143.323 30.2746 142.499 30.552C142.331 30.6087 142.162 30.6655 141.989 30.7239C141.511 30.8845 141.032 31.0443 140.554 31.204C139.736 31.4923 138.956 31.8158 138.166 32.1555C138.172 32.3602 138.177 32.5648 138.183 32.7756C138.201 33.543 138.212 34.3105 138.222 35.078C138.227 35.4087 138.234 35.7393 138.243 36.0699C138.347 40.0974 138.347 40.0974 136.503 41.7693C135.418 42.4434 134.168 42.8698 132.937 43.3125C132.683 43.4054 132.428 43.4983 132.166 43.594C126.332 45.681 122.074 46.5511 116.038 44.4965C115.477 44.2999 114.917 44.1021 114.358 43.9032C113.763 43.6943 113.168 43.4857 112.573 43.2772C112.284 43.1761 111.996 43.075 111.699 42.9708C109.915 42.3508 108.116 41.7635 106.316 41.1778C106.385 40.978 106.385 40.978 106.456 40.7741C108.149 36.0212 108.149 36.0212 107.075 31.2963C106.439 30.6615 105.867 30.2537 105.053 29.7926C104.967 29.2609 104.929 28.78 104.923 28.2469C104.919 28.0949 104.914 27.943 104.909 27.7864C104.896 27.3005 104.887 26.8147 104.879 26.3287C104.87 25.9995 104.862 25.6703 104.853 25.341C104.831 24.5336 104.814 23.7261 104.8 22.9185C106.67 22.0889 108.578 21.3845 110.535 20.7167C110.83 20.6152 111.126 20.5137 111.43 20.4092C112.337 20.0985 113.245 19.7896 114.153 19.4815C114.434 19.3858 114.716 19.2901 115.007 19.1914C115.796 18.9244 116.585 18.6587 117.375 18.394C117.611 18.3146 117.847 18.2352 118.09 18.1533C122.806 16.585 125.585 17.6057 130.023 19.1987Z" fill="#E0E6FE"/>
<path d="M111.404 48.0786C112.13 48.2665 112.13 48.2665 112.636 48.6961C112.705 49.3445 112.658 49.9772 112.636 50.6295C113.387 50.7004 114.137 50.7713 114.911 50.8443C114.895 50.5386 114.88 50.2329 114.863 49.9179C114.817 49.0176 114.817 49.0176 115.245 48.53C115.891 48.129 116.41 48.1964 117.186 48.2665C117.691 48.6961 117.691 48.6961 117.725 49.3658C117.724 49.6322 117.724 49.8985 117.723 50.173C117.732 51.2098 117.732 51.2098 118.347 52.0325C118.861 52.2207 118.861 52.2207 119.408 52.3648C120.546 52.7687 121.444 53.7847 121.989 54.711C122.239 54.8527 122.489 54.9945 122.747 55.1406C122.664 55.3533 122.58 55.5659 122.494 55.785C122.468 56.1556 122.457 56.527 122.454 56.8982C122.452 57.1287 122.449 57.3591 122.447 57.5965C122.445 57.8493 122.444 58.1021 122.442 58.3626C122.44 58.6287 122.437 58.8949 122.435 59.1692C122.428 59.8992 122.423 60.6293 122.417 61.3593C122.412 62.1222 122.405 62.8851 122.398 63.648C122.386 65.0927 122.374 66.5374 122.363 67.9821C122.351 69.6269 122.337 71.2716 122.323 72.9163C122.294 76.2997 122.267 79.6831 122.241 83.0665C122.104 82.9781 121.966 82.8897 121.825 82.7986C121.553 82.6246 121.553 82.6246 121.276 82.4471C121.097 82.3321 120.918 82.2171 120.733 82.0987C120.129 81.7215 119.507 81.3876 118.86 81.0661C118.65 80.9606 118.439 80.8551 118.223 80.7464C117.882 80.5812 117.537 80.423 117.186 80.2739C117.186 79.6359 117.186 78.9979 117.186 78.3406C116.97 78.293 116.754 78.2453 116.532 78.1963C110.48 76.7328 104.837 74.1427 99.7441 71.0369C99.9944 70.9306 99.9944 70.9306 100.25 70.8221C100.247 70.6172 100.244 70.4124 100.241 70.2014C100.216 68.2702 100.197 66.339 100.184 64.4078C100.178 63.4149 100.169 62.4221 100.154 61.4293C100.141 60.471 100.133 59.5129 100.13 58.5545C100.127 58.1891 100.123 57.8236 100.116 57.4582C100.107 56.9459 100.106 56.434 100.106 55.9217C100.102 55.7708 100.097 55.62 100.092 55.4647C100.103 54.644 100.229 54.3029 100.838 53.6527C101.594 53.1543 102.086 53.0484 103.03 52.9924C102.999 52.5937 102.999 52.5937 102.967 52.1869C102.974 51.5525 103.005 51.3104 103.394 50.7503C104.918 49.9606 107.107 50.1093 108.844 50.1999C109.094 50.2707 109.345 50.3416 109.602 50.4147C109.582 50.1843 109.561 49.9539 109.539 49.7165C109.602 48.911 109.602 48.911 110.013 48.3739C110.614 48.0517 110.614 48.0517 111.404 48.0786Z" fill="#E5EAFD"/>
<path d="M138.166 32.1558C138.192 33.1299 138.21 34.1039 138.222 35.0783C138.227 35.4089 138.234 35.7395 138.243 36.0701C138.347 40.0976 138.347 40.0976 136.503 41.7696C135.418 42.4436 134.168 42.87 132.937 43.3127C132.682 43.4056 132.428 43.4985 132.166 43.5942C126.332 45.6812 122.074 46.5513 116.037 44.4967C115.477 44.3001 114.917 44.1023 114.358 43.9034C113.763 43.6945 113.168 43.4859 112.573 43.2775C112.284 43.1763 111.996 43.0752 111.699 42.971C109.915 42.351 108.116 41.7638 106.316 41.178C106.385 40.9782 106.385 40.9782 106.456 40.7744C107.401 37.9441 107.965 35.308 107.833 32.3706C108.936 32.4986 109.888 32.7297 110.922 33.078C111.218 33.1774 111.515 33.2768 111.821 33.3793C112.135 33.486 112.448 33.5929 112.762 33.6997C113.083 33.8079 113.404 33.916 113.725 34.024C115.594 34.6555 117.454 35.3018 119.293 35.9964C121.427 36.7597 122.983 36.9723 125.161 36.228C125.45 36.1307 125.739 36.0334 126.037 35.9331C126.197 35.8789 126.357 35.8246 126.522 35.7687C127.51 35.436 128.503 35.1143 129.495 34.7906C129.93 34.6483 130.365 34.5059 130.8 34.3635C131.019 34.292 131.237 34.2205 131.462 34.1469C131.913 33.9995 132.363 33.852 132.814 33.7045C133.472 33.4891 134.13 33.2738 134.787 33.0587C134.989 32.9927 135.19 32.9266 135.398 32.8586C137.548 32.1558 137.548 32.1558 138.166 32.1558Z" fill="#AAB9F6"/>
<path d="M17.086 32.1558C18.0488 32.2935 18.8873 32.531 19.7885 32.848C20.0668 32.9453 20.345 33.0425 20.6317 33.1427C20.9266 33.2468 21.2215 33.3508 21.5254 33.4581C22.1399 33.6727 22.7544 33.8872 23.3689 34.1017C23.6734 34.2083 23.9778 34.3148 24.2915 34.4246C25.5428 34.8622 26.7956 35.2965 28.0502 35.7271C28.2541 35.798 28.4579 35.8689 28.6679 35.9419C30.9859 36.7359 32.9877 36.9398 35.365 36.1701C35.6304 36.0877 35.6304 36.0877 35.9012 36.0037C38.0249 35.3328 40.1176 34.5896 42.2076 33.8467C43.8395 33.271 45.4607 32.7644 47.1665 32.3706C47.1702 32.4949 47.1739 32.6191 47.1777 32.7472C47.2248 35.7658 47.2248 35.7658 47.9713 38.6975C48.278 39.5107 48.4746 40.3432 48.6832 41.178C41.3811 43.6764 41.3811 43.6764 38.0823 44.7493C37.8737 44.8175 37.6651 44.8858 37.4502 44.9561C33.8567 46.1163 31.0779 46.1763 27.4499 45.0447C27.1287 44.9476 26.8074 44.8505 26.4862 44.7535C24.7079 44.2082 22.9515 43.6141 21.2094 42.9905C21.0428 42.9328 20.8762 42.8751 20.7045 42.8157C19.1416 42.2426 18.0983 41.3948 17.3388 40.1039C17.0622 39.2048 17.057 38.3478 17.0613 37.4212C17.0617 37.2702 17.062 37.1191 17.0624 36.9635C17.0638 36.4842 17.067 36.0049 17.0702 35.5257C17.0715 35.1994 17.0726 34.8731 17.0736 34.5468C17.0764 33.7498 17.0808 32.9528 17.086 32.1558Z" fill="#5862B6"/>
<path d="M111.404 48.0786C112.13 48.2665 112.13 48.2665 112.636 48.6961C112.705 49.3445 112.658 49.9772 112.636 50.6295C113.387 50.7004 114.138 50.7713 114.911 50.8443C114.895 50.5386 114.88 50.2329 114.864 49.9179C114.818 49.0176 114.818 49.0176 115.245 48.53C115.891 48.129 116.411 48.1964 117.186 48.2665C117.896 48.8697 117.766 49.2626 117.784 50.1082C117.788 50.2532 117.792 50.3982 117.796 50.5476C117.807 51.0283 117.815 51.509 117.823 51.9897C117.83 52.3236 117.836 52.6576 117.843 52.9915C117.857 53.6924 117.869 54.3932 117.879 55.0941C117.893 55.9913 117.913 56.8884 117.934 57.7855C117.949 58.4756 117.961 59.1657 117.972 59.8559C117.978 60.1866 117.985 60.5173 117.993 60.848C118.004 61.3112 118.01 61.7744 118.015 62.2377C118.02 62.5012 118.025 62.7646 118.029 63.036C117.929 63.8624 117.629 64.4309 116.933 65.0221C116.432 65.0393 115.929 65.0411 115.428 65.037C115.105 65.0347 114.783 65.0325 114.451 65.0302C114.096 65.0265 113.742 65.0227 113.387 65.0187C113.026 65.0151 112.665 65.0116 112.304 65.008C111.546 65.0001 110.788 64.9913 110.03 64.9819C109.057 64.9701 108.085 64.9622 107.112 64.9553C106.366 64.9494 105.619 64.9405 104.873 64.9309C104.515 64.9268 104.156 64.9237 103.797 64.9217C103.296 64.9187 102.795 64.9112 102.294 64.9035C101.866 64.899 101.866 64.899 101.429 64.8944C101.207 64.8656 100.984 64.8369 100.755 64.8073C100.227 64.1342 100.185 63.9679 100.172 63.1996C100.168 63.0053 100.164 62.811 100.16 62.6108C100.159 62.4013 100.158 62.1919 100.156 61.9761C100.154 61.7602 100.152 61.5443 100.149 61.3219C100.146 60.8651 100.143 60.4082 100.142 59.9514C100.139 59.253 100.127 58.5551 100.114 57.8568C100.112 57.4129 100.11 56.969 100.109 56.5251C100.104 56.3166 100.099 56.108 100.094 55.8931C100.102 54.897 100.117 54.4316 100.838 53.615C101.592 53.1603 102.116 53.0467 103.03 52.9924C102.999 52.5937 102.999 52.5937 102.967 52.1869C102.974 51.5525 103.005 51.3104 103.394 50.7503C104.918 49.9606 107.108 50.1093 108.844 50.1999C109.095 50.2707 109.345 50.3416 109.603 50.4147C109.582 50.1843 109.561 49.9539 109.539 49.7165C109.603 48.911 109.603 48.911 110.013 48.3739C110.614 48.0517 110.614 48.0517 111.404 48.0786Z" fill="#E4EAFC"/>
<path d="M14.5584 53.2075C14.5584 62.5649 14.5584 71.9222 14.5584 81.5631C15.5594 81.1377 15.5594 81.1377 16.5806 80.7038C20.7778 79.6603 25.9669 79.4312 29.9057 81.2325C30.8859 81.7644 31.6991 82.354 32.5056 83.0668C32.6724 83.0668 32.8393 83.0668 33.0112 83.0668C33.1597 82.9062 33.3083 82.7456 33.4614 82.5801C34.0572 81.9562 34.6126 81.6092 35.4125 81.1872C35.6498 81.0598 35.887 80.9324 36.1314 80.8012C36.717 80.5289 37.1769 80.4071 37.8139 80.2742C37.8974 80.1324 37.9808 79.9906 38.0667 79.8446C38.1501 79.9155 38.2335 79.9863 38.3195 80.0594C38.8312 80.086 39.3439 80.0976 39.8565 80.1035C40.3499 80.1099 40.3499 80.1099 40.8532 80.1165C41.2149 80.1201 41.5767 80.1237 41.9384 80.1273C42.3064 80.1318 42.6744 80.1363 43.0424 80.1409C44.0127 80.1528 44.9831 80.1634 45.9534 80.1737C46.9429 80.1845 47.9324 80.1965 48.9218 80.2083C50.8646 80.2314 52.8073 80.2532 54.75 80.2742C54.759 80.6188 54.7655 80.9634 54.7708 81.308C54.7766 81.5958 54.7766 81.5958 54.7824 81.8895C54.7404 82.5813 54.5148 82.9695 53.9917 83.4964C53.0926 84.0058 52.7107 83.9804 51.6441 83.982C51.3109 83.9836 50.9778 83.9851 50.6345 83.9867C50.2645 83.9862 49.8944 83.9856 49.5243 83.985C49.1352 83.986 48.7462 83.9871 48.3571 83.9884C47.2995 83.9913 46.2419 83.9914 45.1843 83.9908C44.3017 83.9906 43.4192 83.9916 42.5366 83.9927C40.4543 83.9951 38.3721 83.9952 36.2899 83.9939C34.1414 83.9926 31.9929 83.9952 29.8444 83.9998C28.0003 84.0036 26.1563 84.0049 24.3122 84.0042C23.2106 84.0038 22.109 84.0043 21.0074 84.0073C19.9713 84.01 18.9352 84.0096 17.899 84.0068C17.5188 84.0063 17.1386 84.0069 16.7585 84.0086C16.2392 84.0109 15.7201 84.0092 15.2008 84.0064C14.9103 84.0065 14.6198 84.0065 14.3205 84.0065C13.2207 83.892 12.5941 83.5546 11.8315 82.8845C11.448 82.3061 11.4284 81.9204 11.4254 81.2579C11.4225 81.0215 11.4196 80.7851 11.4167 80.5415C11.4174 80.2832 11.4181 80.0248 11.4189 79.7586C11.4168 79.4857 11.4146 79.2129 11.4124 78.9317C11.4068 78.1838 11.4061 77.436 11.4065 76.6882C11.4066 76.0636 11.4044 75.439 11.4023 74.8144C11.3974 73.3407 11.3967 71.8671 11.3984 70.3935C11.4001 68.8738 11.3943 67.3542 11.3849 65.8345C11.3772 64.5292 11.3743 63.2238 11.3753 61.9185C11.3758 61.1391 11.3744 60.3598 11.3682 59.5804C11.3616 58.7113 11.3651 57.8423 11.3695 56.9731C11.3662 56.7152 11.3628 56.4573 11.3594 56.1915C11.3799 54.4744 11.3799 54.4744 12.0561 53.5763C12.7889 53.2075 12.7889 53.2075 14.5584 53.2075Z" fill="#ABBBF6"/>
<path d="M143.475 57.7183C146.552 58.0919 148.65 59.2947 150.805 61.1553C150.953 61.2816 151.102 61.4078 151.254 61.5379C153.803 63.8749 154.267 66.6938 154.185 69.7496C154.022 72.3738 152.426 74.679 150.202 76.4609C148.092 77.947 146.082 78.8908 143.475 79.6294C143.475 72.3987 143.475 65.168 143.475 57.7183Z" fill="#E3E9FE"/>
<path d="M11.5253 57.7183C11.5253 64.9489 11.5253 72.1796 11.5253 79.6294C6.97441 78.0824 3.67484 76.1902 1.66696 72.3257C0.516381 69.5035 0.556413 66.7995 2.05797 64.1056C3.95754 60.9771 6.37084 59.2112 10.2614 57.9331C11.1633 57.7183 11.1633 57.7183 11.5253 57.7183Z" fill="#E4EAFD"/>
<path d="M140.441 53.2075C142.464 53.2075 142.464 53.2075 143.088 53.5638C143.557 54.1744 143.601 54.5143 143.6 55.2408C143.602 55.4793 143.604 55.7179 143.606 55.9636C143.603 56.2243 143.6 56.485 143.597 56.7536C143.598 57.029 143.599 57.3043 143.6 57.5879C143.603 58.3425 143.599 59.0969 143.594 59.8514C143.589 60.6411 143.59 61.4309 143.591 62.2206C143.59 63.5468 143.586 64.873 143.579 66.1992C143.571 67.7323 143.568 69.2654 143.568 70.7985C143.569 72.4309 143.565 74.0632 143.561 75.6956C143.56 76.1659 143.559 76.6361 143.559 77.1064C143.558 77.9828 143.554 78.8591 143.548 79.7355C143.548 79.9962 143.549 80.2569 143.549 80.5255C143.547 80.764 143.545 81.0025 143.542 81.2483C143.541 81.4555 143.541 81.6627 143.54 81.8762C143.471 82.4562 143.344 82.796 142.969 83.2816C142.049 83.8029 141.377 83.769 140.315 83.76C140.122 83.7601 139.93 83.7601 139.732 83.7602C139.096 83.7599 138.46 83.7565 137.824 83.7532C137.383 83.7524 136.942 83.7518 136.501 83.7513C135.34 83.7497 134.179 83.7455 133.019 83.7407C131.834 83.7363 130.65 83.7344 129.466 83.7322C127.142 83.7276 124.818 83.7203 122.494 83.7112C122.791 82.4858 123.849 82.0261 125.022 81.3483C127.282 80.164 129.602 79.9881 132.21 80.0057C132.456 80.004 132.702 80.0023 132.955 80.0006C135.713 80.0069 137.797 80.5311 140.441 81.3483C140.441 72.0618 140.441 62.7754 140.441 53.2075Z" fill="#626CBF"/>
<path d="M42.8691 48.0518C44.5024 48.1509 44.5024 48.1509 45.1441 48.6962C45.2453 49.1952 45.3311 49.6967 45.3969 50.1999C45.726 50.1874 46.0551 50.175 46.3942 50.1621C46.8306 50.1521 47.267 50.1423 47.7035 50.1328C48.028 50.1193 48.028 50.1193 48.3591 50.1055C49.448 50.0877 50.2235 50.1066 51.1081 50.6832C51.7163 51.274 51.7163 51.274 51.8644 51.7548C51.8151 52.1674 51.7657 52.5799 51.7163 52.9925C51.9405 52.9748 52.1647 52.9571 52.3956 52.9388C53.4408 53.0058 53.7673 53.2231 54.4969 53.8518C54.6604 54.4647 54.6604 54.4647 54.6647 55.1667C54.6672 55.5478 54.6672 55.5478 54.6697 55.9366C54.6648 56.2011 54.6599 56.4657 54.6549 56.7383C54.6597 57.0021 54.6646 57.2658 54.6697 57.5376C54.668 57.7919 54.6664 58.0463 54.6647 58.3083C54.6626 58.6562 54.6626 58.6562 54.6604 59.011C54.4337 59.8991 54.1035 60.2011 53.233 60.7258C52.4606 60.8753 51.7139 60.8715 50.9244 60.8609C50.7036 60.8614 50.4827 60.862 50.2552 60.8625C49.7899 60.8623 49.3246 60.8594 48.8594 60.8541C48.1463 60.8467 47.4341 60.8496 46.721 60.8538C46.2684 60.8523 45.8159 60.8502 45.3633 60.8475C45.0434 60.8491 45.0434 60.8491 44.717 60.8507C43.2404 60.8254 43.2404 60.8254 42.6864 60.36C42.3002 59.7698 42.2689 59.4037 42.2694 58.7307C42.2678 58.5042 42.2663 58.2777 42.2646 58.0444C42.2681 57.6795 42.2681 57.6795 42.2717 57.3073C42.2716 57.0568 42.2715 56.8063 42.2713 56.5482C42.2719 56.0192 42.2744 55.4901 42.2786 54.9611C42.2845 54.1488 42.2837 53.3366 42.2821 52.5243C42.2835 52.0107 42.2853 51.4972 42.2875 50.9836C42.2873 50.7395 42.287 50.4954 42.2868 50.2439C42.2892 50.0187 42.2916 49.7936 42.2941 49.5616C42.2953 49.3629 42.2964 49.1642 42.2976 48.9595C42.3635 48.4814 42.3635 48.4814 42.8691 48.0518Z" fill="#E9EEFD"/>
<path d="M94.1833 26.1408C94.6888 26.5704 94.6888 26.5704 94.7678 27.3089C94.6888 28.0741 94.6888 28.0741 94.3887 28.5038C93.9305 28.7186 93.9305 28.7186 93.3637 28.6808C92.4767 28.4555 91.9048 28.0771 91.1657 27.6042C85.9861 24.4236 79.5098 23.6596 73.2727 24.2754C69.5911 24.7987 65.496 26.0965 62.744 28.289C62.0805 28.7186 62.0805 28.7186 61.259 28.7052C60.5638 28.5038 60.5638 28.5038 60.0583 28.0741C60.0109 27.3894 60.0109 27.3894 60.3111 26.5704C60.9901 25.9673 61.7671 25.5233 62.5861 25.0667C62.7715 24.9585 62.9569 24.8502 63.1479 24.7386C72.443 19.6306 85.562 20.3236 94.1833 26.1408Z" fill="#F3F3F3" fill-opacity="0.952941"/>
<path d="M89.4123 44.4941C90.3152 44.6443 90.6233 44.837 91.1502 45.4742C91.2394 46.1043 91.2349 46.4336 90.8342 46.9763C90.6152 47.1765 90.6152 47.1765 90.3918 47.3807C90.2511 47.5131 90.1103 47.6454 89.9653 47.7818C89.4839 48.1812 88.9952 48.5491 88.4838 48.9194C87.2401 49.8416 86.0971 50.8388 84.9472 51.844C84.4886 52.2406 84.0298 52.6371 83.5708 53.0334C82.8537 53.6531 82.1379 54.2738 81.4259 54.8976C80.7343 55.5033 80.0367 56.1038 79.3387 56.7042C79.0199 56.9861 79.0199 56.9861 78.6947 57.2737C78.3934 57.5309 78.3934 57.5309 78.0861 57.7933C77.9114 57.9452 77.7368 58.0972 77.5568 58.2537C76.8223 58.6773 76.3483 58.6558 75.478 58.5779C74.9841 58.3302 74.9841 58.3302 74.5439 57.9704C74.3727 57.8329 74.2016 57.6954 74.0252 57.5538C73.8373 57.3955 73.6494 57.2373 73.4557 57.0742C73.2411 56.8972 73.0264 56.7201 72.8053 56.5376C72.1003 55.9512 71.4028 55.359 70.7068 54.765C70.4646 54.5599 70.2223 54.3549 69.98 54.1499C69.6369 53.8579 69.6369 53.8579 69.2869 53.56C69.08 53.384 68.8731 53.2079 68.66 53.0265C68.0327 52.4594 67.6707 52.0797 67.5312 51.3011C67.6418 50.6298 67.6418 50.6298 68.1948 49.9988C68.9057 49.5557 68.9057 49.5557 69.4949 49.5666C70.3866 49.8361 70.9241 50.3043 71.5648 50.8723C71.6921 50.9817 71.8193 51.091 71.9505 51.2037C72.3546 51.5519 72.7551 51.903 73.1556 52.2543C73.4297 52.4916 73.704 52.7286 73.9786 52.9655C74.6496 53.5452 75.3174 54.1275 75.9835 54.7113C76.8232 54.4005 77.3713 54.0128 78.0135 53.4611C78.211 53.2926 78.4084 53.1241 78.6119 52.9504C78.8231 52.7681 79.0343 52.5857 79.2518 52.3978C79.4712 52.2102 79.6906 52.0227 79.9167 51.8294C80.4996 51.3309 81.0815 50.8315 81.6628 50.3315C82.4791 49.6297 83.2967 48.9289 84.115 48.2287C84.5501 47.8563 84.9846 47.4834 85.4182 47.1098C88.2662 44.6695 88.2662 44.6695 89.4123 44.4941Z" fill="#F3F3F3" fill-opacity="0.952941"/>
<path d="M37.8135 79.8442C38.0638 79.9506 38.0638 79.9506 38.3191 80.0591C38.8404 80.0849 39.3626 80.0972 39.8848 80.1032C40.3781 80.1096 40.3781 80.1096 40.8815 80.1161C41.2419 80.1198 41.6023 80.1234 41.9627 80.127C42.3303 80.1314 42.698 80.136 43.0656 80.1405C44.0339 80.1524 45.0021 80.163 45.9704 80.1734C46.9582 80.1842 47.946 80.1961 48.9338 80.208C50.8724 80.2311 52.811 80.2529 54.7497 80.2739C54.7586 80.6184 54.7651 80.963 54.7704 81.3077C54.7762 81.5955 54.7762 81.5955 54.7821 81.8892C54.74 82.581 54.5144 82.9692 53.9913 83.4961C53.0892 84.0072 52.7057 83.9788 51.6352 83.9774C51.3911 83.9779 51.3911 83.9779 51.1421 83.9785C50.596 83.9792 50.0499 83.9768 49.5038 83.9745C49.1127 83.9744 48.7216 83.9744 48.3305 83.9747C47.2678 83.9748 46.2051 83.9723 45.1423 83.9693C44.0321 83.9666 42.9218 83.9663 41.8115 83.9658C39.7086 83.9645 37.6058 83.961 35.5029 83.9567C33.109 83.9519 30.7151 83.9495 28.3213 83.9473C23.3965 83.9428 18.4717 83.9353 13.5469 83.9257C13.5469 83.8548 13.5469 83.7839 13.5469 83.7109C13.7816 83.7079 14.0163 83.7049 14.2581 83.7018C16.4712 83.6726 18.6841 83.6384 20.897 83.5985C22.0346 83.5782 23.1722 83.5598 24.31 83.5459C25.4083 83.5323 26.5063 83.5137 27.6043 83.4915C28.023 83.484 28.4418 83.4782 28.8606 83.4744C29.4478 83.4687 30.0344 83.4564 30.6214 83.4426C30.8805 83.4424 30.8805 83.4424 31.1448 83.4422C32.1033 83.4119 32.4795 83.3001 33.2159 82.7603C33.3985 82.5778 33.581 82.3953 33.7691 82.2072C35.0175 81.3682 36.2416 80.5902 37.8135 80.2739C37.8135 80.1321 37.8135 79.9903 37.8135 79.8442Z" fill="#B4C0F7"/>
<path d="M117.186 48.2669C117.896 48.8701 117.766 49.263 117.784 50.1086C117.788 50.2536 117.792 50.3986 117.795 50.548C117.807 51.0287 117.815 51.5093 117.823 51.9901C117.829 52.324 117.836 52.658 117.843 52.9919C117.857 53.6927 117.869 54.3936 117.879 55.0944C117.893 55.9917 117.913 56.8887 117.934 57.7858C117.949 58.476 117.961 59.1661 117.972 59.8563C117.978 60.187 117.985 60.5177 117.993 60.8483C118.004 61.3116 118.01 61.7747 118.015 62.2381C118.02 62.5015 118.024 62.765 118.029 63.0364C117.928 63.8628 117.629 64.4312 116.933 65.0224C116.432 65.0397 115.929 65.0415 115.427 65.0373C115.105 65.0351 114.783 65.0329 114.451 65.0306C114.096 65.0269 113.742 65.023 113.387 65.0191C113.026 65.0155 112.665 65.0119 112.304 65.0083C111.546 65.0005 110.788 64.9916 110.03 64.9823C109.057 64.9705 108.084 64.9626 107.112 64.9557C106.365 64.9497 105.619 64.9409 104.873 64.9313C104.514 64.9272 104.156 64.9241 103.797 64.9221C103.296 64.919 102.795 64.9116 102.294 64.9039C101.865 64.8994 101.865 64.8994 101.429 64.8947C101.206 64.866 100.984 64.8372 100.755 64.8076C100.211 64.1132 100.131 63.8943 100.25 63.0891C100.549 62.7379 100.549 62.7379 101.008 62.4447C101.627 62.3672 101.627 62.3672 102.37 62.3715C102.649 62.3716 102.927 62.3716 103.214 62.3717C103.514 62.375 103.814 62.3783 104.123 62.3817C104.431 62.3826 104.738 62.3836 105.055 62.3845C106.039 62.3881 107.023 62.3962 108.007 62.4044C108.673 62.4076 109.34 62.4106 110.006 62.4132C111.641 62.4203 113.276 62.4311 114.911 62.4447C114.909 62.2765 114.907 62.1084 114.906 61.9352C114.891 60.3516 114.879 58.7681 114.872 57.1845C114.868 56.3703 114.862 55.5562 114.854 54.742C114.845 53.9564 114.841 53.1709 114.839 52.3853C114.838 52.0855 114.835 51.7856 114.831 51.4858C114.825 51.0661 114.825 50.6465 114.825 50.2268C114.823 49.9878 114.821 49.7488 114.82 49.5026C114.911 48.9113 114.911 48.9113 115.247 48.5111C115.896 48.1357 116.424 48.198 117.186 48.2669Z" fill="#79B4D1"/>
<path d="M37.8141 48.2667C38.6988 48.1995 38.6988 48.1995 39.5836 48.2667C40.0891 48.6963 40.0891 48.6963 40.1499 49.2699C40.1488 49.5132 40.1477 49.7564 40.1465 50.0071C40.1465 50.4199 40.1465 50.4199 40.1464 50.8411C40.1438 51.1426 40.1412 51.4441 40.1385 51.7456C40.1375 52.0533 40.1368 52.3609 40.1363 52.6685C40.1344 53.4787 40.1294 54.2888 40.1238 55.0989C40.1187 55.9254 40.1164 56.7519 40.1138 57.5784C40.1084 59.2004 40.0998 60.8224 40.0891 62.4444C40.2584 62.4435 40.4278 62.4425 40.6022 62.4415C42.3613 62.4321 44.1203 62.4256 45.8794 62.4208C46.5363 62.4187 47.1931 62.4157 47.85 62.412C48.7931 62.4068 49.7361 62.4044 50.6791 62.4025C50.9738 62.4003 51.2685 62.398 51.572 62.3958C51.8453 62.3957 52.1185 62.3957 52.4 62.3957C52.7612 62.3942 52.7612 62.3942 53.1297 62.3928C53.7391 62.4444 53.7391 62.4444 54.4975 62.8741C54.5764 63.6259 54.5764 63.6259 54.4975 64.3778C53.8089 64.963 53.4219 64.8686 52.4575 64.8827C51.9741 64.8912 51.9741 64.8912 51.481 64.8998C51.1278 64.9038 50.7746 64.9077 50.4214 64.9115C50.0606 64.9166 49.6999 64.9218 49.3391 64.9271C48.5826 64.9379 47.8262 64.9471 47.0696 64.9552C46.0988 64.9657 45.1281 64.9802 44.1574 64.9957C43.4123 65.0073 42.6673 65.0167 41.9221 65.0255C41.5641 65.03 41.2062 65.0352 40.8482 65.041C40.3483 65.0488 39.8484 65.0535 39.3486 65.0581C39.0638 65.0616 38.7791 65.065 38.4857 65.0686C37.8141 65.0222 37.8141 65.0222 37.3086 64.5926C37.2444 63.9499 37.2444 63.9499 37.2431 63.1145C37.2423 62.9625 37.2414 62.8106 37.2405 62.654C37.2382 62.1503 37.2397 61.6467 37.2414 61.143C37.2411 60.7935 37.2406 60.4441 37.24 60.0947C37.2392 59.3617 37.2403 58.6287 37.2427 57.8957C37.2455 56.9557 37.2439 56.0157 37.2408 55.0756C37.239 54.3538 37.2396 53.6319 37.2409 52.9101C37.2413 52.5635 37.2408 52.2169 37.2397 51.8703C37.2384 51.3858 37.2403 50.9014 37.2431 50.417C37.2438 50.0032 37.2438 50.0032 37.2444 49.581C37.3086 48.9111 37.3086 48.9111 37.8141 48.2667Z" fill="#79B4D1"/>
<path d="M122.242 57.5039C122.326 57.5039 122.409 57.5039 122.495 57.5039C122.578 65.727 122.662 73.9501 122.748 82.4224C122.915 82.4933 123.081 82.5642 123.253 82.6372C123.001 83.166 123.001 83.166 122.495 83.7113C121.771 83.8196 121.196 83.8541 120.472 83.8435C120.163 83.8453 120.163 83.8453 119.847 83.8471C119.166 83.8496 118.484 83.8444 117.803 83.8389C117.33 83.8385 116.856 83.8385 116.383 83.8389C115.391 83.8385 114.399 83.8345 113.407 83.8277C112.135 83.8192 110.863 83.8183 109.59 83.8199C108.613 83.8205 107.636 83.8179 106.659 83.8143C106.189 83.8128 105.72 83.8121 105.251 83.8123C104.595 83.8119 103.94 83.8073 103.285 83.8015C103.09 83.8021 102.896 83.8028 102.695 83.8034C101.388 83.7856 101.388 83.7856 100.772 83.4237C100.243 82.7214 100.222 82.1168 100.235 81.3081C100.237 81.1145 100.239 80.9209 100.242 80.7215C100.245 80.5739 100.247 80.4263 100.25 80.2743C100.552 80.271 100.552 80.271 100.86 80.2676C102.753 80.2465 104.646 80.2245 106.539 80.2014C107.512 80.1895 108.486 80.178 109.459 80.1674C110.398 80.1572 111.337 80.146 112.277 80.134C112.635 80.1296 112.994 80.1256 113.352 80.122C113.854 80.1168 114.355 80.1102 114.857 80.1036C115.143 80.1002 115.429 80.0969 115.723 80.0934C116.45 80.0847 116.45 80.0847 117.187 79.8446C117.187 79.9864 117.187 80.1282 117.187 80.2743C117.348 80.323 117.51 80.3717 117.676 80.422C118.334 80.6614 118.957 80.916 119.588 81.2007C119.773 81.284 119.958 81.3674 120.149 81.4532C120.725 81.778 120.725 81.778 121.989 82.8521C122.073 74.4872 122.156 66.1223 122.242 57.5039Z" fill="#A3B2F4"/>
<path d="M102.313 0.521958C102.64 0.520604 102.967 0.51925 103.305 0.517854C103.663 0.518623 104.022 0.519505 104.381 0.52049C104.747 0.5202 105.114 0.519784 105.48 0.519244C106.249 0.51861 107.017 0.519533 107.785 0.521539C108.771 0.523986 109.757 0.522577 110.744 0.520004C111.5 0.518453 112.257 0.518945 113.014 0.520059C113.378 0.520346 113.741 0.519992 114.105 0.518993C114.613 0.517905 115.12 0.519857 115.628 0.521958C115.917 0.5223 116.207 0.522642 116.505 0.522994C117.186 0.57755 117.186 0.57755 117.691 1.00718C117.757 1.56829 117.757 1.56829 117.761 2.28804C117.763 2.55688 117.766 2.82571 117.768 3.1027C117.768 3.39743 117.768 3.69216 117.767 3.9869C117.768 4.28816 117.769 4.58942 117.771 4.89068C117.772 5.52255 117.772 6.15439 117.771 6.78625C117.77 7.5963 117.774 8.40624 117.78 9.21626C117.783 9.83859 117.784 10.4609 117.783 11.0832C117.783 11.3819 117.784 11.6805 117.787 11.9792C117.79 12.3967 117.788 12.8143 117.785 13.2319C117.786 13.4695 117.786 13.7072 117.786 13.9521C117.691 14.5405 117.691 14.5405 117.346 14.9395C116.754 15.2914 116.375 15.2749 115.669 15.185C115.256 14.9288 115.256 14.9288 114.911 14.5405C114.82 14.0226 114.82 14.0226 114.825 13.4025C114.825 13.0542 114.825 13.0542 114.825 12.6989C114.829 12.4485 114.833 12.1981 114.837 11.9401C114.838 11.6835 114.839 11.427 114.84 11.1626C114.844 10.3418 114.854 9.52104 114.863 8.70024C114.867 8.14432 114.871 7.5884 114.874 7.03248C114.882 5.66846 114.895 4.30449 114.911 2.94051C114.652 2.94266 114.652 2.94266 114.388 2.94485C112.596 2.95908 110.804 2.96882 109.012 2.97591C108.343 2.97916 107.674 2.98356 107.005 2.98913C106.044 2.99693 105.084 3.0006 104.123 3.00345C103.673 3.00844 103.673 3.00844 103.214 3.01353C102.935 3.01358 102.657 3.01362 102.37 3.01367C102.002 3.01582 102.002 3.01582 101.627 3.01801C101.008 2.94051 101.008 2.94051 100.549 2.65484C100.091 2.1054 100.168 1.66005 100.25 1.00718C100.945 0.416414 101.34 0.523108 102.313 0.521958Z" fill="#79B4D1"/>
<path d="M39.3439 0.518692C39.826 0.51562 39.826 0.51562 40.3178 0.512487C40.6702 0.512543 41.0226 0.512744 41.375 0.51308C41.7352 0.512245 42.0954 0.511314 42.4555 0.510291C43.211 0.508686 43.9664 0.508751 44.7218 0.509881C45.6903 0.511125 46.6587 0.50749 47.6272 0.502503C48.3712 0.49934 49.1152 0.49915 49.8592 0.49982C50.2163 0.49971 50.5733 0.498582 50.9304 0.496423C51.4296 0.493776 51.9289 0.495641 52.4281 0.497714C52.7123 0.497578 52.9964 0.497443 53.2892 0.497304C53.9912 0.577692 53.9912 0.577692 54.4621 0.871348C54.8743 1.37445 54.8552 1.69733 54.7495 2.29621C54.4496 2.64743 54.4496 2.64743 53.9912 2.94066C53.3722 3.01815 53.3722 3.01815 52.6289 3.01382C52.3506 3.01377 52.0723 3.01372 51.7856 3.01367C51.4854 3.01034 51.1852 3.00702 50.8759 3.00359C50.5684 3.00268 50.2609 3.00177 49.9441 3.00083C48.9601 2.99721 47.9763 2.98912 46.9924 2.98093C46.3261 2.9777 45.6597 2.97476 44.9934 2.97212C43.3584 2.96501 41.7234 2.95422 40.0884 2.94066C40.0901 3.08455 40.0918 3.22844 40.0935 3.3767C40.1103 4.87156 40.1217 6.3664 40.1301 7.86131C40.1339 8.41954 40.1391 8.97777 40.1456 9.53598C40.1548 10.3374 40.1591 11.1388 40.1625 11.9402C40.1664 12.1906 40.1703 12.441 40.1743 12.699C40.1744 13.0473 40.1744 13.0473 40.1745 13.4026C40.1762 13.6073 40.1779 13.8119 40.1796 14.0228C40.0884 14.5407 40.0884 14.5407 39.7434 14.929C39.1533 15.2946 38.7789 15.2759 38.0662 15.1851C37.6534 14.9396 37.6534 14.9396 37.3079 14.5407C37.2133 13.9523 37.2133 13.9523 37.2138 13.232C37.2114 12.8277 37.2114 12.8277 37.209 12.4153C37.2112 12.121 37.2135 11.8267 37.216 11.5324C37.2162 11.2309 37.216 10.9295 37.2157 10.628C37.2157 9.9965 37.2183 9.36506 37.2229 8.73357C37.2286 7.92329 37.2288 7.11309 37.2271 6.3028C37.2262 5.68048 37.2279 5.05817 37.2304 4.43585C37.2313 4.13703 37.2316 3.8382 37.2312 3.53937C37.2311 3.1223 37.2347 2.70524 37.2384 2.28819C37.2396 2.05067 37.2408 1.81315 37.242 1.56843C37.3771 0.417873 38.1862 0.522726 39.3439 0.518692Z" fill="#79B4D1"/>
<path d="M89.5794 29.2078C90.1972 29.6292 90.6062 29.9286 90.9132 30.5579C90.8974 31.0815 90.8974 31.0815 90.6289 31.5783C90.1391 31.9408 90.1391 31.9408 89.4321 32.0071C88.4855 31.9296 88.077 31.7113 87.3112 31.2427C85.943 30.4623 84.6282 29.9917 83.0613 29.5778C82.8583 29.5136 82.6553 29.4493 82.4462 29.3832C77.9855 28.1058 72.8352 28.9626 68.7004 30.6653C67.9353 31.0149 67.2216 31.3857 66.5202 31.82C65.8724 32.1556 65.8724 32.1556 65.1773 32.1288C64.6086 31.9408 64.6086 31.9408 64.103 31.5112C63.9292 30.9339 63.9292 30.9339 64.103 30.2223C69.8769 24.5924 82.9506 25.1779 89.5794 29.2078Z" fill="#F3F3F3" fill-opacity="0.952941"/>
<path d="M42.8691 48.0518C44.5024 48.1509 44.5024 48.1509 45.1441 48.6962C45.2049 49.1149 45.2049 49.1149 45.2015 49.6323C45.2014 49.9226 45.2014 49.9226 45.2014 50.2187C45.1988 50.4279 45.1961 50.6372 45.1935 50.8527C45.1927 51.0667 45.192 51.2806 45.1913 51.5011C45.1885 52.1862 45.1821 52.8713 45.1757 53.5564C45.1732 54.0201 45.1708 54.4839 45.1688 54.9476C45.1632 56.0861 45.1547 57.2245 45.1441 58.3629C45.5287 58.3578 45.5287 58.3578 45.921 58.3526C46.8721 58.341 47.8232 58.3336 48.7744 58.3275C49.1861 58.3242 49.5977 58.3198 50.0094 58.3143C50.6011 58.3064 51.1927 58.3028 51.7844 58.2999C51.9685 58.2966 52.1526 58.2933 52.3423 58.2899C53.6126 58.2895 53.6126 58.2895 54.2408 58.6555C54.4969 59.0073 54.4969 59.0073 54.4811 59.5444C54.1802 60.2263 53.9865 60.3756 53.233 60.7258C52.472 60.8239 51.7177 60.8212 50.9491 60.819C50.6173 60.8207 50.6173 60.8207 50.2788 60.8224C49.812 60.8238 49.3452 60.8235 48.8784 60.8216C48.1632 60.8198 47.4485 60.826 46.7333 60.8328C46.2796 60.8332 45.8259 60.833 45.3722 60.8324C45.1581 60.8348 44.944 60.8372 44.7234 60.8397C43.2398 60.8247 43.2398 60.8247 42.6862 60.3605C42.3005 59.7701 42.2689 59.4037 42.2694 58.7307C42.2678 58.5042 42.2663 58.2777 42.2646 58.0444C42.2681 57.6795 42.2681 57.6795 42.2717 57.3073C42.2716 57.0568 42.2715 56.8063 42.2713 56.5483C42.2719 56.0192 42.2744 55.4901 42.2786 54.9611C42.2845 54.1488 42.2837 53.3366 42.2821 52.5243C42.2835 52.0107 42.2853 51.4972 42.2875 50.9836C42.2873 50.7395 42.287 50.4954 42.2868 50.2439C42.2892 50.0187 42.2916 49.7936 42.2941 49.5617C42.2953 49.3629 42.2964 49.1642 42.2976 48.9595C42.3635 48.4814 42.3635 48.4814 42.8691 48.0518Z" fill="#79B4D1"/>
<path d="M111.388 48.0923C112.131 48.2668 112.131 48.2668 112.636 48.6965C112.704 49.1664 112.704 49.1664 112.71 49.757C112.713 49.9778 112.716 50.1987 112.719 50.4262C112.72 50.6656 112.721 50.9051 112.721 51.1517C112.723 51.397 112.725 51.6423 112.726 51.895C112.729 52.4147 112.73 52.9345 112.73 53.4542C112.731 54.2501 112.74 55.0457 112.75 55.8416C112.751 56.3459 112.752 56.8502 112.753 57.3545C112.756 57.5931 112.76 57.8316 112.764 58.0774C112.762 58.2996 112.761 58.5218 112.759 58.7507C112.76 58.9459 112.761 59.1412 112.761 59.3423C112.595 60.041 112.283 60.2955 111.625 60.7261C110.857 60.8115 110.182 60.8467 109.414 60.8402C109.093 60.8414 109.093 60.8414 108.765 60.8427C108.312 60.8433 107.859 60.8417 107.406 60.8381C106.715 60.8335 106.024 60.8381 105.333 60.8436C104.892 60.843 104.452 60.8419 104.011 60.8402C103.805 60.842 103.599 60.8437 103.387 60.8455C102.106 60.8276 101.444 60.6754 100.503 59.8668C100.693 58.8465 100.693 58.8465 101.261 58.3631C101.914 58.3255 102.539 58.3134 103.191 58.3212C103.476 58.3221 103.476 58.3221 103.767 58.323C104.374 58.3254 104.982 58.3308 105.59 58.3363C106.002 58.3384 106.414 58.3404 106.825 58.3422C107.835 58.3469 108.846 58.3543 109.856 58.3631C109.854 58.2435 109.852 58.1238 109.851 58.0005C109.834 56.7565 109.822 55.5125 109.814 54.2685C109.81 53.804 109.805 53.3396 109.798 52.8751C109.789 52.2081 109.785 51.5411 109.782 50.874C109.778 50.6659 109.774 50.4577 109.77 50.2433C109.77 50.0498 109.77 49.8563 109.77 49.657C109.768 49.4867 109.766 49.3164 109.765 49.1409C109.942 48.2749 110.388 48.0403 111.388 48.0923Z" fill="#79B4D1"/>
<path d="M109.603 48.9111C109.686 48.9111 109.77 48.9111 109.855 48.9111C109.855 51.9594 109.855 55.0076 109.855 58.1482C107.687 58.1482 105.518 58.1482 103.283 58.1482C103.224 57.1848 103.168 56.2221 103.12 55.2584C103.102 54.9308 103.083 54.6033 103.062 54.2758C103.032 53.8046 103.009 53.3333 102.987 52.8617C102.976 52.7158 102.966 52.5699 102.954 52.4195C102.927 51.6868 102.97 51.3404 103.507 50.7534C104.084 50.3881 104.375 50.2937 105.084 50.2537C105.38 50.2363 105.38 50.2363 105.681 50.2185C108.609 50.1335 108.609 50.1335 109.603 50.4148C109.603 49.9186 109.603 49.4224 109.603 48.9111Z" fill="#E5E9FC"/>
<path d="M81.3233 16.8364C87.401 16.9626 94.5394 19.4124 98.7334 23.1332C98.8168 23.2041 98.9002 23.275 98.9862 23.348C99.0599 23.9435 99.0781 24.2962 98.7018 24.8114C97.9544 25.2137 97.5861 25.2068 96.7112 25.0665C96.2876 24.7896 96.2876 24.7896 95.8264 24.4221C92.2511 21.5889 86.9881 20.1366 82.2401 19.56C81.2707 19.4345 80.6736 19.3558 79.8768 18.8486C79.5223 18.4073 79.5223 18.4073 79.5539 17.8434C79.9248 16.9877 80.3049 16.8408 81.3233 16.8364Z" fill="#F3F3F3" fill-opacity="0.952941"/>
<path d="M100.756 4.87393C101.256 4.79499 101.256 4.79499 101.877 4.79736C102.225 4.7964 102.225 4.7964 102.58 4.79541C102.956 4.79939 102.956 4.79939 103.34 4.80345C103.597 4.80385 103.854 4.80425 104.118 4.80467C104.661 4.80611 105.205 4.80911 105.748 4.81352C106.583 4.82021 107.418 4.82232 108.253 4.82359C108.78 4.82556 109.306 4.82778 109.833 4.8303C110.085 4.83121 110.336 4.83213 110.595 4.83307C110.826 4.83513 111.057 4.83719 111.296 4.83932C111.5 4.84079 111.705 4.84225 111.915 4.84376C112.384 4.87393 112.384 4.87393 112.636 5.08875C112.666 5.38849 112.679 5.68949 112.685 5.99028C112.689 6.18172 112.693 6.37315 112.698 6.57039C112.709 7.44679 112.719 8.32316 112.725 9.1996C112.729 9.66261 112.736 10.1256 112.746 10.5886C112.76 11.2542 112.765 11.9197 112.769 12.5854C112.775 12.7929 112.78 13.0003 112.786 13.2141C112.784 13.7494 112.772 14.2327 112.636 14.7554C112.04 15.2233 112.04 15.2233 111.373 15.3999C110.758 15.2575 110.311 15.1418 109.856 14.7554C109.834 14.1983 109.827 13.6469 109.831 13.0898C109.832 12.9232 109.832 12.7566 109.832 12.585C109.834 12.0509 109.837 11.5168 109.84 10.9827C109.841 10.6215 109.843 10.2602 109.844 9.89901C109.846 9.01163 109.851 8.12427 109.856 7.2369C109.584 7.2414 109.313 7.2459 109.033 7.25053C108.025 7.26608 107.017 7.27595 106.01 7.2841C105.573 7.28842 105.137 7.29428 104.701 7.30172C104.074 7.31214 103.448 7.31701 102.821 7.32081C102.625 7.32524 102.43 7.32968 102.229 7.33425C100.879 7.33473 100.879 7.33473 100.245 6.82971C99.9976 6.37764 99.9976 6.37764 100.045 5.93458C100.25 5.51838 100.25 5.51838 100.756 4.87393Z" fill="#79B4D1"/>
<path d="M42.3635 4.87384C44.0416 4.85208 45.7196 4.83701 47.3978 4.82664C47.9689 4.82231 48.5399 4.81645 49.111 4.80902C49.9311 4.79861 50.751 4.79372 51.5712 4.78993C51.9551 4.78327 51.9551 4.78327 52.3468 4.77649C52.7035 4.77639 52.7035 4.77639 53.0674 4.77629C53.2768 4.77438 53.4861 4.77247 53.7019 4.77051C54.2441 4.87384 54.2441 4.87384 54.6998 5.27432C55.0024 5.7331 55.0024 5.7331 54.955 6.29699C54.7496 6.80717 54.7496 6.80717 54.2441 7.2368C53.5553 7.27443 52.8926 7.28653 52.2041 7.27876C52.0028 7.27815 51.8016 7.27754 51.5942 7.27691C50.9502 7.27451 50.3064 7.26911 49.6625 7.26365C49.2264 7.2615 48.7903 7.25954 48.3542 7.25778C47.2841 7.25304 46.2141 7.24562 45.1441 7.2368C45.1481 7.45468 45.152 7.67255 45.1561 7.89703C45.1698 8.7053 45.1786 9.51355 45.1857 10.3219C45.1896 10.6717 45.1947 11.0216 45.2013 11.3714C45.2105 11.8743 45.2148 12.377 45.2181 12.8799C45.2221 13.0363 45.226 13.1928 45.23 13.3539C45.2304 14.4319 45.2304 14.4319 44.8087 14.9623C44.1539 15.307 43.6189 15.2527 42.8691 15.1849C42.3635 14.7553 42.3635 14.7553 42.3027 14.3285C42.3039 14.1539 42.305 13.9793 42.3061 13.7995C42.3062 13.6017 42.3062 13.4039 42.3063 13.2001C42.3089 12.9861 42.3115 12.7722 42.3142 12.5518C42.3149 12.3331 42.3156 12.1143 42.3163 11.889C42.3192 11.1885 42.3255 10.4882 42.3319 9.78773C42.3345 9.31362 42.3368 8.83952 42.3388 8.36542C42.3444 7.20154 42.3529 6.03769 42.3635 4.87384Z" fill="#79B4D1"/>
<path d="M73.2974 16.85C73.5548 16.8489 73.8123 16.8478 74.0775 16.8467C74.7193 16.9037 74.7193 16.9037 75.2249 17.3334C75.3666 18.4659 75.3666 18.4659 74.9078 18.9718C74.3896 19.3181 74.0403 19.3942 73.3932 19.4874C73.1831 19.5196 72.9731 19.5518 72.7566 19.5849C72.5336 19.6173 72.3107 19.6496 72.0809 19.6829C67.0472 20.4837 61.74 22.1338 58.036 25.2815C57.2776 25.2412 57.2776 25.2412 56.5193 25.0667C55.9724 24.3695 55.8838 24.1569 56.0137 23.3482C58.9652 20.004 65.1452 18.3528 69.6637 17.3334C69.9223 17.2722 69.9223 17.2722 70.1861 17.2098C71.241 16.969 72.206 16.8453 73.2974 16.85Z" fill="#F3F3F3" fill-opacity="0.952941"/>
<path d="M40.0889 49.126C40.1723 49.126 40.2557 49.126 40.3416 49.126C40.3416 49.6222 40.3416 50.1184 40.3416 50.6297C40.9256 50.7006 41.5095 50.7715 42.1111 50.8445C42.1111 50.3483 42.1111 49.8521 42.1111 49.3408C42.1945 49.3408 42.2779 49.3408 42.3639 49.3408C42.3669 49.5364 42.3669 49.5364 42.3701 49.7361C42.3918 51.0916 42.4169 52.4471 42.4441 53.8026C42.4538 54.3087 42.4626 54.8148 42.4705 55.3209C42.482 56.0478 42.4967 56.7745 42.512 57.5012C42.5149 57.7282 42.5178 57.9551 42.5208 58.1889C42.5259 58.3995 42.5309 58.6102 42.536 58.8273C42.5394 59.0129 42.5428 59.1984 42.5463 59.3896C42.5832 59.9281 42.5832 59.9281 43.1222 60.5112C43.8786 60.5792 44.5817 60.6065 45.3389 60.6043C45.67 60.606 45.67 60.606 46.0078 60.6077C46.4755 60.6091 46.9432 60.6088 47.4108 60.607C48.125 60.6052 48.8386 60.6113 49.5527 60.6181C50.0071 60.6185 50.4615 60.6184 50.9159 60.6177C51.1289 60.6201 51.342 60.6226 51.5615 60.625C51.7622 60.623 51.9629 60.621 52.1697 60.6189C52.345 60.6189 52.5203 60.6189 52.7009 60.6188C53.4245 60.5065 53.4245 60.5065 54.4972 59.6519C54.5806 61.0697 54.664 62.4875 54.75 63.9482C54.6666 63.9482 54.5831 63.9482 54.4972 63.9482C54.4659 63.7754 54.4346 63.6026 54.4024 63.4246C54.3503 63.2429 54.2981 63.0613 54.2444 62.8741C53.6044 62.6022 53.1449 62.6251 52.4284 62.6152C52.0128 62.6087 52.0128 62.6087 51.5888 62.6021C51.2967 62.5985 51.0046 62.595 50.7036 62.5913C50.3018 62.5853 50.3018 62.5853 49.892 62.5792C48.8888 62.5645 47.8855 62.5516 46.8823 62.5385C44.6404 62.5075 42.3986 62.4764 40.0889 62.4445C40.0889 58.0494 40.0889 53.6543 40.0889 49.126Z" fill="#E5ECFD"/>
<path d="M77.2793 31.001C77.4881 31.0014 77.6969 31.0017 77.912 31.0021C80.9384 31.0528 84.4 31.7894 86.6004 33.6593C86.8532 34.1964 86.8532 34.1964 86.8532 34.7334C86.5846 35.2302 86.5846 35.2302 86.0949 35.5927C85.3448 35.7261 84.839 35.7291 84.1724 35.3804C83.951 35.2462 83.951 35.2462 83.7251 35.1093C81.356 33.7504 78.0333 33.3921 75.263 33.7533C73.4751 34.0674 72.1106 34.6614 70.5974 35.5222C69.9171 35.8075 69.9171 35.8075 69.2289 35.784C68.6532 35.5927 68.6532 35.5927 68.1477 34.9482C68.0055 34.4515 68.0055 34.4515 68.1477 33.8742C70.1449 31.6787 74.1899 30.9956 77.2793 31.001Z" fill="#F3F3F3" fill-opacity="0.952941"/>
<path d="M82.0452 36.6884C82.4767 36.9485 82.4767 36.9485 83.0613 37.5258C83.0929 38.2106 83.0929 38.2106 82.8085 38.8147C82.3661 39.1235 82.3661 39.1235 81.7974 39.2444C81.1147 39.1849 80.5925 39.0526 79.9697 38.8088C78.399 38.3401 76.2316 38.3174 74.7038 38.9221C74.4588 39.0285 74.2137 39.1348 73.9613 39.2444C73.2034 39.3322 72.8783 39.3451 72.2392 38.9893C71.9391 38.5999 71.9391 38.5999 71.7969 38.0897C71.9722 37.3946 72.3318 37.1111 72.9976 36.6959C75.6645 35.2746 79.321 35.4007 82.0452 36.6884Z" fill="#F3F3F3" fill-opacity="0.952941"/>
<path d="M100.25 64.1631C100.417 64.3049 100.583 64.4466 100.755 64.5927C101.41 64.664 101.41 64.664 102.182 64.6612C102.63 64.6676 102.63 64.6676 103.086 64.6741C103.572 64.6779 103.572 64.6779 104.067 64.6817C104.397 64.6858 104.728 64.69 105.068 64.6943C105.946 64.7053 106.825 64.7138 107.703 64.7218C108.6 64.7304 109.496 64.7414 110.392 64.7521C112.151 64.773 113.91 64.7911 115.669 64.8075C115.669 64.8784 115.669 64.9493 115.669 65.0223C111.582 65.0223 107.494 65.0223 103.283 65.0223C103.283 67.6452 103.283 70.2681 103.283 72.9705C100.755 71.6816 100.755 71.6816 99.7441 70.8223C99.911 70.8223 100.078 70.8223 100.25 70.8223C100.25 68.6248 100.25 66.4272 100.25 64.1631Z" fill="#B3C1F1"/>
<path d="M103.283 52.9927C103.283 54.694 103.283 56.3953 103.283 58.1482C105.452 58.1482 107.621 58.1482 109.855 58.1482C109.855 58.2191 109.855 58.29 109.855 58.363C109.597 58.3673 109.34 58.3716 109.074 58.3759C108.12 58.3923 107.165 58.4113 106.211 58.4312C105.798 58.4395 105.384 58.4469 104.971 58.4537C104.377 58.4635 103.784 58.4759 103.19 58.4889C102.912 58.4926 102.912 58.4926 102.628 58.4964C101.577 58.4959 101.577 58.4959 100.755 59.0075C100.778 59.553 100.778 59.553 101.008 60.0816C101.814 60.5381 102.339 60.619 103.283 60.726C103.283 61.2931 103.283 61.8602 103.283 62.4445C103.128 62.4551 102.972 62.4656 102.812 62.4764C102.608 62.4925 102.403 62.5085 102.193 62.5251C101.889 62.5475 101.889 62.5475 101.58 62.5704C100.939 62.6369 100.939 62.6369 100.25 63.089C100.218 61.8543 100.195 60.6199 100.18 59.385C100.174 58.9652 100.165 58.5453 100.154 58.1255C100.139 57.5213 100.132 56.9174 100.126 56.3131C100.12 56.126 100.113 55.9389 100.106 55.7461C100.106 54.786 100.132 54.4075 100.858 53.631C101.852 52.9892 101.936 52.9927 103.283 52.9927Z" fill="#B4C0F0"/>
<path d="M54.2446 64.3779C54.3281 64.3779 54.4115 64.3779 54.4974 64.3779C54.5665 65.3599 54.6168 66.3408 54.6502 67.324C54.6641 67.6578 54.683 67.9914 54.7072 68.3247C54.7412 68.8065 54.7567 69.2867 54.769 69.7693C54.7833 69.9166 54.7977 70.0639 54.8124 70.2156C54.8131 70.6454 54.8131 70.6454 54.4974 71.4668C53.5798 71.963 52.6622 72.4593 51.7169 72.9705C51.7169 70.3476 51.7169 67.7247 51.7169 65.0224C47.4626 65.0224 43.2084 65.0224 38.8252 65.0224C38.8252 64.9515 38.8252 64.8806 38.8252 64.8076C39.1094 64.8042 39.1094 64.8042 39.3993 64.8008C41.1811 64.7798 42.9628 64.7578 44.7446 64.7347C45.6607 64.7228 46.5768 64.7113 47.4929 64.7007C48.3763 64.6905 49.2597 64.6793 50.1431 64.6673C50.6457 64.6608 51.1482 64.6553 51.6508 64.6498C52.1063 64.6434 52.1063 64.6434 52.5709 64.6369C52.8398 64.6335 53.1087 64.6302 53.3857 64.6267C53.9797 64.6503 53.9797 64.6503 54.2446 64.3779Z" fill="#AEBAF0"/>
<path d="M109.808 65.8142C110.165 65.8155 110.165 65.8155 110.53 65.8169C113.194 65.8532 115.93 66.1007 118.197 67.385C118.465 67.9489 118.465 67.9489 118.45 68.4591C118.366 68.6009 118.283 68.7427 118.197 68.8887C117.08 68.8009 116.109 68.6669 115.051 68.35C113.456 67.9331 111.892 67.9253 110.234 67.9086C109.647 67.9013 109.06 67.8921 108.473 67.881C108.088 67.877 108.088 67.877 107.695 67.8729C107.075 67.8147 107.075 67.8147 106.569 67.385C106.49 66.848 106.49 66.848 106.569 66.311C107.639 65.7045 108.548 65.8078 109.808 65.8142Z" fill="#C1CEFC"/>
<path d="M48.4304 70.6074C48.462 71.1176 48.462 71.1176 48.4304 71.6815C47.6904 72.3104 46.8956 72.1748 45.9026 72.1917C43.8062 72.2552 41.8652 72.5576 39.833 72.9838C38.9102 73.1733 38.0041 73.3351 37.0554 73.4C36.5498 72.9704 36.5498 72.9704 36.5479 72.4426C36.8026 71.8963 36.8026 71.8963 37.4839 71.5716C37.9131 71.4465 37.9131 71.4465 38.3509 71.319C38.7991 71.1865 38.7991 71.1865 39.2563 71.0513C39.531 70.9757 39.8057 70.9001 40.0887 70.8222C40.267 70.771 40.4452 70.7198 40.6288 70.667C42.9613 70.0432 46.1784 69.7091 48.4304 70.6074Z" fill="#C3CEFB"/>
<path d="M21.3363 56.9933C21.5724 56.9937 21.8085 56.994 22.0518 56.9944C24.7778 57.0349 27.2247 57.4209 29.4726 58.7924C29.3892 59.1468 29.3058 59.5013 29.2198 59.8665C28.1014 60.2037 27.3622 59.9553 26.3069 59.6063C24.3238 59.0694 22.1615 59.1496 20.1001 59.092C19.7198 59.0799 19.7198 59.0799 19.3319 59.0676C18.9854 59.0579 18.9854 59.0579 18.6319 59.0479C18.0976 59.0072 18.0976 59.0072 17.8448 58.7924C17.8345 58.3628 17.8341 57.933 17.8448 57.5035C18.9977 56.9463 20.0368 56.9914 21.3363 56.9933Z" fill="#C1CDF9"/>
<path d="M116.13 71.0281C117.01 71.2846 117.774 71.5597 118.45 72.1113C118.513 72.6886 118.513 72.6886 118.45 73.1854C118.059 73.4313 118.059 73.4313 117.439 73.615C116.794 73.4755 116.222 73.3214 115.606 73.1183C113.25 72.3587 110.949 72.2817 108.453 72.1961C106.849 72.1338 106.849 72.1338 106.569 71.8965C106.559 71.467 106.559 71.0372 106.569 70.6076C109.096 69.5341 113.545 70.3439 116.13 71.0281Z" fill="#BFCCFC"/>
<path d="M29.4719 67.5998C29.4719 68.0252 29.4719 68.4505 29.4719 68.8887C28.2729 68.9813 27.4603 68.833 26.3349 68.465C24.6156 67.9633 23.0149 67.8948 21.2092 67.8818C20.6237 67.8728 20.0382 67.863 19.4526 67.8524C19.1979 67.85 18.9432 67.8476 18.6808 67.8451C18.0969 67.8146 18.0969 67.8146 17.8441 67.5998C17.7967 67.0762 17.7967 67.0762 17.8441 66.5257C20.366 64.3826 27.0265 66.2466 29.4719 67.5998Z" fill="#C0CCFC"/>
<path d="M45.0338 65.8279C45.4042 65.8249 45.4042 65.8249 45.782 65.8218C46.0151 65.8227 46.2482 65.8236 46.4883 65.8246C46.698 65.825 46.9077 65.8255 47.1238 65.826C47.6722 65.8816 47.6722 65.8816 48.4305 66.3112C48.4937 66.8617 48.4937 66.8617 48.4305 67.3853C48.0394 67.7177 47.6605 67.6351 47.1163 67.6454C46.8955 67.6511 46.6748 67.6568 46.4473 67.6626C46.2103 67.6686 45.9732 67.6745 45.729 67.6807C43.3097 67.759 40.9118 67.904 38.6472 68.6994C37.9291 68.934 37.5291 68.8628 36.8028 68.6742C36.55 68.4594 36.55 68.4594 36.5342 67.9089C36.5394 67.7361 36.5446 67.5633 36.55 67.3853C39.3218 66.0199 41.8845 65.848 45.0338 65.8279Z" fill="#C0CCFA"/>
<path d="M137.155 57.5036C137.166 57.9331 137.165 58.3629 137.155 58.7925C136.723 59.1595 136.155 59.0394 135.564 59.045C131.429 59.0912 131.429 59.0912 127.433 59.9009C126.791 60.0813 126.791 60.0813 125.78 60.0813C125.697 59.656 125.613 59.2307 125.527 58.7925C128.234 56.8386 133.91 56.4301 137.155 57.5036Z" fill="#6770CA"/>
<path d="M29.2196 71.8963C29.2828 72.5541 29.2828 72.5541 29.2196 73.1852C29.1362 73.256 29.0527 73.3269 28.9668 73.4C27.72 73.295 26.5793 73.0416 25.3805 72.7421C23.4872 72.2982 21.6899 72.2589 19.7343 72.32C19.5284 72.3258 19.3226 72.3316 19.1104 72.3376C18.8353 72.3492 18.8353 72.3492 18.5546 72.361C18.0974 72.3259 18.0974 72.3259 17.5918 71.8963C17.7322 70.9177 17.7322 70.9177 18.0974 70.6074C21.7293 70.0655 26.04 70.0949 29.2196 71.8963Z" fill="#BFCCFA"/>
<path d="M21.2888 61.5315C21.4917 61.533 21.6945 61.5344 21.9036 61.5359C24.5342 61.5747 26.7778 62.0472 29.2197 62.8741C29.2197 63.2994 29.2197 63.7248 29.2197 64.163C28.2146 64.3943 27.5859 64.3449 26.5972 64.0824C24.6496 63.5721 22.8196 63.4936 20.7991 63.5185C20.3472 63.524 19.8953 63.5285 19.4433 63.532C19.1465 63.5357 19.1465 63.5357 18.8437 63.5395C18.3503 63.5185 18.3503 63.5185 17.8447 63.3037C17.8447 62.8784 17.8447 62.4531 17.8447 62.0148C19.0001 61.5219 20.0263 61.5185 21.2888 61.5315Z" fill="#C2CCFB"/>
<path d="M133.506 70.3522C133.905 70.3483 133.905 70.3483 134.313 70.3443C134.568 70.3439 134.823 70.3434 135.086 70.343C135.32 70.3421 135.553 70.3412 135.793 70.3403C136.397 70.3925 136.397 70.3925 137.155 70.8221C137.218 71.3726 137.218 71.3726 137.155 71.8962C136.753 72.2381 136.325 72.1464 135.768 72.1563C135.533 72.162 135.298 72.1677 135.057 72.1735C134.805 72.1795 134.554 72.1854 134.296 72.1916C132.201 72.2557 130.318 72.4464 128.308 72.9703C127.866 73.0588 127.424 73.1441 126.981 73.2254C126.668 73.283 126.355 73.3406 126.033 73.3999C125.866 73.0455 125.699 72.691 125.527 72.3258C127.677 70.5618 130.684 70.3537 133.506 70.3522Z" fill="#666DC8"/>
<path d="M133.49 65.841C133.768 65.8371 133.768 65.8371 134.052 65.833C135.186 65.8305 136.086 65.9473 137.155 66.3109C137.072 66.8072 136.988 67.3034 136.902 67.8146C136.693 67.8079 136.693 67.8079 136.479 67.801C133.662 67.7226 131.133 67.7823 128.42 68.465C127.541 68.676 126.686 68.7951 125.78 68.8887C125.697 68.5343 125.613 68.1798 125.527 67.8146C127.542 66.1027 130.777 65.843 133.49 65.841Z" fill="#666CC7"/>
<path d="M137.155 62.0146C137.218 62.5651 137.218 62.5651 137.155 63.0887C136.74 63.4414 136.256 63.3353 135.684 63.3413C132.935 63.391 130.409 63.4739 127.784 64.1972C127.072 64.3707 126.514 64.4135 125.78 64.3776C125.697 64.0232 125.613 63.6687 125.527 63.3035C127.99 61.5326 134.362 60.4325 137.155 62.0146Z" fill="#676FCB"/>
<path d="M51.7168 52.9927C53.2334 52.9927 53.2334 52.9927 53.9552 53.2578C54.8457 54.2337 54.6293 55.2887 54.5763 56.4834C54.5706 56.7254 54.5649 56.9675 54.559 57.2168C54.5441 57.814 54.5234 58.4106 54.4973 59.0075C54.2471 58.8657 53.9968 58.7239 53.739 58.5779C53.0797 58.5263 52.445 58.4978 51.7849 58.4889C51.5952 58.4848 51.4055 58.4806 51.2101 58.4763C50.6049 58.4635 49.9996 58.4535 49.3944 58.4436C48.9838 58.4354 48.5732 58.427 48.1626 58.4184C47.1566 58.3978 46.1506 58.3798 45.1445 58.363C45.1445 58.2922 45.1445 58.2213 45.1445 58.1482C47.3134 58.0773 49.4822 58.0065 51.7168 57.9334C51.7168 56.303 51.7168 54.6725 51.7168 52.9927Z" fill="#B1BFEF"/>
<path d="M40.0889 49.126C40.1723 49.126 40.2557 49.126 40.3416 49.126C40.3416 49.6222 40.3416 50.1184 40.3416 50.6297C40.9256 50.7006 41.5095 50.7715 42.1111 50.8445C42.1111 50.3483 42.1111 49.8521 42.1111 49.3408C42.1945 49.3408 42.2779 49.3408 42.3639 49.3408C42.2805 52.1763 42.197 55.0119 42.1111 57.9334C41.4438 57.9334 40.7764 57.9334 40.0889 57.9334C40.0889 55.0269 40.0889 52.1205 40.0889 49.126Z" fill="#EBEDF9"/>
<path d="M5.45853 27.8594C5.87561 27.9303 6.2927 28.0012 6.72242 28.0742C6.72242 30.2717 6.72242 32.4693 6.72242 34.7334C7.05608 34.7334 7.38975 34.7334 7.73353 34.7334C7.73353 35.2297 7.73353 35.7259 7.73353 36.2372C7.48328 36.2372 7.23303 36.2372 6.9752 36.2372C6.9752 36.7334 6.9752 37.2296 6.9752 37.7409C6.55811 37.7409 6.14103 37.7409 5.71131 37.7409C5.62789 37.3155 5.54447 36.8902 5.45853 36.452C5.20828 36.3811 4.95803 36.3102 4.7002 36.2372C4.7002 35.7409 4.7002 35.2447 4.7002 34.7334C4.95045 34.7334 5.2007 34.7334 5.45853 34.7334C5.45853 32.465 5.45853 30.1966 5.45853 27.8594Z" fill="#858DC4"/>
<path d="M81.0388 79.6294C81.289 79.7003 81.5393 79.7712 81.7971 79.8442C82.2652 79.8662 82.7342 79.8756 83.203 79.8782C83.6416 79.8814 83.6416 79.8814 84.0891 79.8846C84.4102 79.8858 84.7313 79.887 85.0622 79.8883C85.4035 79.8904 85.7448 79.8925 86.086 79.8948C87.013 79.9006 87.9399 79.9051 88.8669 79.9094C89.8355 79.9141 90.804 79.9199 91.7726 79.9257C93.6069 79.9364 95.4412 79.9461 97.2756 79.9554C99.3638 79.966 101.452 79.9778 103.54 79.9897C107.836 80.0141 112.132 80.0371 116.428 80.059C116.428 80.1299 116.428 80.2008 116.428 80.2738C111.822 80.2839 107.217 80.2914 102.611 80.2961C100.473 80.2983 98.3349 80.3013 96.1967 80.3063C94.3335 80.3105 92.4703 80.3133 90.6071 80.3143C89.6201 80.3148 88.6331 80.3161 87.6461 80.3193C86.7178 80.3222 85.7896 80.3231 84.8614 80.3224C84.3567 80.3226 83.8521 80.3249 83.3475 80.3273C83.049 80.3267 82.7506 80.3261 82.4431 80.3255C82.0523 80.3261 82.0523 80.3261 81.6536 80.3267C81.0388 80.2738 81.0388 80.2738 80.5332 79.8442C80.7 79.7733 80.8669 79.7024 81.0388 79.6294Z" fill="#2E2C3D"/>
<path d="M5.45801 27.8594C6.08363 27.9657 6.08363 27.9657 6.7219 28.0742C6.80531 30.3426 6.88873 32.6111 6.97467 34.9483C6.55759 34.8774 6.14051 34.8065 5.71079 34.7335C5.62737 32.465 5.54395 30.1966 5.45801 27.8594Z" fill="#676DBD"/>
<path d="M54.2444 59.6519C54.3278 59.6519 54.4113 59.6519 54.4972 59.6519C54.5806 61.0696 54.664 62.4874 54.75 63.9482C54.6666 63.9482 54.5831 63.9482 54.4972 63.9482C54.4659 63.7754 54.4346 63.6026 54.4024 63.4245C54.3503 63.2429 54.2981 63.0612 54.2444 62.8741C53.664 62.6274 53.2139 62.5932 52.5698 62.5384C52.3632 62.5204 52.1566 62.5024 51.9438 62.4839C51.7854 62.4709 51.627 62.4579 51.4639 62.4444C51.4639 61.9482 51.4639 61.452 51.4639 60.9407C51.6222 60.9017 51.7806 60.8627 51.9438 60.8224C52.2536 60.7414 52.2536 60.7414 52.5698 60.6588C52.7751 60.6065 52.9803 60.5541 53.1918 60.5002C53.8228 60.3148 53.8228 60.3148 54.2444 59.6519Z" fill="#B1BDF6"/>
<path d="M100.25 59.8667C100.751 60.0794 100.751 60.0794 101.261 60.2963C101.616 60.3856 101.975 60.4665 102.335 60.538C102.648 60.6 102.961 60.6621 103.283 60.726C103.283 61.2931 103.283 61.8602 103.283 62.4445C103.05 62.4603 103.05 62.4603 102.812 62.4764C102.608 62.4924 102.404 62.5085 102.193 62.525C101.89 62.5475 101.89 62.5475 101.58 62.5703C100.94 62.6369 100.94 62.6369 100.25 63.0889C100.25 62.0256 100.25 60.9623 100.25 59.8667Z" fill="#A5BAF7"/>
<path d="M78.2581 40.5334C78.7637 41.0033 78.7637 41.0033 79.0165 41.6074C78.8489 42.1295 78.7129 42.5099 78.2581 42.8963C77.3892 42.95 77.3892 42.95 76.4887 42.8963C75.944 42.2019 75.8647 41.983 75.9831 41.1778C76.5521 40.3989 77.2433 40.3896 78.2581 40.5334Z" fill="#F3F3F3" fill-opacity="0.952941"/>
<path d="M42.1111 51.9185C42.1945 51.9185 42.2779 51.9185 42.3639 51.9185C42.3639 54.3996 42.3639 56.8807 42.3639 59.437C41.6131 59.5788 40.8624 59.7205 40.0889 59.8666C40.0889 59.2286 40.0889 58.5906 40.0889 57.9333C40.7562 57.9333 41.4235 57.9333 42.1111 57.9333C42.1111 55.9484 42.1111 53.9635 42.1111 51.9185Z" fill="#C9CFF3"/>
<path d="M112.636 57.9331C113.387 57.9331 114.138 57.9331 114.911 57.9331C114.911 58.5711 114.911 59.2091 114.911 59.8664C114.598 59.893 114.286 59.9196 113.963 59.947C113.173 60.0292 112.563 60.1469 111.878 60.5109C112.045 60.2982 112.212 60.0855 112.383 59.8664C112.498 59.3768 112.498 59.3768 112.541 58.8595C112.573 58.5538 112.604 58.2481 112.636 57.9331Z" fill="#C7D0F6"/>
<path d="M45.1445 55.1409C47.0112 55.0616 47.0112 55.0616 47.7987 55.4631C47.9238 55.5695 48.0489 55.6758 48.1779 55.7854C47.8104 56.592 47.8104 56.592 47.2141 56.8192C46.5632 56.8666 46.0287 56.7788 45.3973 56.6446C45.3139 56.1484 45.2305 55.6522 45.1445 55.1409Z" fill="#D3DBFD"/>
<path d="M42.617 65.0225C44.2854 65.0225 45.9537 65.0225 47.6726 65.0225C47.5892 65.2351 47.5058 65.4478 47.4198 65.6669C45.7515 65.6669 44.0831 65.6669 42.3643 65.6669C42.4477 65.4542 42.5311 65.2416 42.617 65.0225Z" fill="#F2F4FD"/>
<path d="M4.7002 34.9482C4.78361 34.9482 4.86703 34.9482 4.95297 34.9482C4.95297 35.3027 4.95297 35.6571 4.95297 36.0223C5.1563 36.0223 5.35963 36.0223 5.56912 36.0223C6.27544 36.0223 6.79478 36.0867 7.48075 36.2371C7.31392 36.2371 7.14708 36.2371 6.9752 36.2371C6.9752 36.7334 6.9752 37.2296 6.9752 37.7408C6.55811 37.7408 6.14103 37.7408 5.71131 37.7408C5.62789 37.3155 5.54447 36.8902 5.45853 36.4519C5.20828 36.3811 4.95803 36.3102 4.7002 36.2371C4.7002 35.8118 4.7002 35.3865 4.7002 34.9482Z" fill="#6C73BA"/>
<path d="M47.6719 80.2739C48.9231 80.2739 50.1744 80.2739 51.4635 80.2739C51.4635 80.5575 51.4635 80.841 51.4635 81.1332C51.0211 81.1027 50.5788 81.0712 50.1365 81.0392C49.8901 81.0218 49.6438 81.0043 49.39 80.9863C48.793 80.929 48.2485 80.8424 47.6719 80.7036C47.6719 80.5618 47.6719 80.42 47.6719 80.2739Z" fill="#CCD6FB"/>
<path d="M100.25 59.8667C100.756 60.0815 101.261 60.2963 101.767 60.5111C101.683 60.7947 101.6 61.0783 101.514 61.3704C101.347 61.3704 101.18 61.3704 101.008 61.3704C100.835 61.9054 100.756 62.311 100.756 62.8741C100.505 62.9804 100.505 62.9804 100.25 63.0889C100.25 62.0256 100.25 60.9623 100.25 59.8667Z" fill="#A3AFE7"/>
<path d="M6.46942 29.5776C6.55284 29.5776 6.63626 29.5776 6.7222 29.5776C6.80562 31.3499 6.88903 33.1221 6.97498 34.948C6.64131 34.8771 6.30764 34.8062 5.96387 34.7332C6.1151 33.0132 6.2791 31.2949 6.46942 29.5776Z" fill="#6E72C5"/>
<path d="M5.96363 26.3553C5.71141 26.9983 5.52071 27.2033 4.95252 27.6442C5.11935 27.7151 5.28618 27.786 5.45807 27.859C5.04099 27.7881 4.62391 27.7172 4.19418 27.6442C4.11077 27.3606 4.02735 27.0771 3.94141 26.7849C4.75735 26.3227 5.02431 26.3122 5.96363 26.3553Z" fill="#7884D2"/>
<path d="M36.2977 58.7925C36.6314 58.7925 36.965 58.7925 37.3088 58.7925C37.3088 59.3596 37.3088 59.9267 37.3088 60.511C37.142 60.511 36.9751 60.511 36.8033 60.511C36.8033 60.3692 36.8033 60.2274 36.8033 60.0814C36.553 60.0814 36.3028 60.0814 36.0449 60.0814C36.1283 59.656 36.2118 59.2307 36.2977 58.7925Z" fill="#DADAF3"/>
<path d="M117.691 58.7925C118.025 58.8634 118.359 58.9343 118.703 59.0073C118.786 59.3617 118.869 59.7162 118.955 60.0814C118.538 60.2231 118.121 60.3649 117.691 60.511C117.691 59.9439 117.691 59.3768 117.691 58.7925Z" fill="#D3D8F4"/>
<path d="M112.636 57.9331C113.386 57.9331 114.137 57.9331 114.911 57.9331C114.911 58.5711 114.911 59.2091 114.911 59.8664C114.243 59.8664 113.576 59.8664 112.889 59.8664C112.972 59.7247 113.055 59.5829 113.141 59.4368C113.475 59.4368 113.809 59.4368 114.152 59.4368C114.236 59.0824 114.319 58.7279 114.405 58.3627C113.821 58.3627 113.237 58.3627 112.636 58.3627C112.636 58.221 112.636 58.0792 112.636 57.9331Z" fill="#D1D9FB"/>
<path d="M38.0664 18.8369C39.348 18.9774 40.4475 19.4501 41.6053 19.911C41.355 20.0528 41.1048 20.1945 40.847 20.3406C40.5967 20.2697 40.3465 20.1988 40.0886 20.1258C40.0052 19.984 39.9218 19.8422 39.8359 19.6962C39.249 19.6087 38.6587 19.5363 38.0664 19.4814C38.0664 19.2687 38.0664 19.056 38.0664 18.8369Z" fill="#7A87DC"/>
<path d="M100.25 80.2739C100.5 80.3448 100.751 80.4157 101.008 80.4887C100.819 81.9387 100.819 81.9387 100.25 82.4221C100.25 81.7132 100.25 81.0043 100.25 80.2739Z" fill="#AFBBF6"/>
<path d="M13.0894 53.4892C13.2406 53.538 13.3918 53.5867 13.5476 53.6369C13.2426 53.7366 13.2426 53.7366 12.9315 53.8383C12.243 54.2182 12.243 54.2182 12.1435 54.7546C12.0839 55.2425 12.0442 55.7244 12.0309 56.2147C11.9475 56.2147 11.8641 56.2147 11.7782 56.2147C11.7576 55.8703 11.7429 55.5256 11.7308 55.1809C11.722 54.989 11.7132 54.7971 11.7041 54.5994C11.7782 54.0666 11.7782 54.0666 12.1257 53.6705C12.5365 53.4221 12.5365 53.4221 13.0894 53.4892Z" fill="#A5B1EC"/>
<path d="M8.49128 46.3335C8.65811 46.4044 8.82494 46.4753 8.99683 46.5483C8.83885 46.9511 8.83885 46.9511 8.49128 47.4076C7.70135 47.6761 7.70135 47.6761 6.97461 47.8372C6.97461 47.6245 6.97461 47.4119 6.97461 47.1928C7.73294 46.7228 7.73294 46.7228 8.49128 46.3335Z" fill="#949CE5"/>
<path d="M7.22739 37.7407C7.84353 37.8884 7.84353 37.8884 8.49128 38.1704C8.69666 38.7342 8.69666 38.7342 8.74405 39.2444C8.4938 39.3508 8.4938 39.3508 8.2385 39.4592C8.2385 39.1757 8.2385 38.8921 8.2385 38.6C7.61287 38.3873 7.61287 38.3873 6.97461 38.1704C7.05803 38.0286 7.14144 37.8868 7.22739 37.7407Z" fill="#808DD9"/>
<path d="M54.2448 56C54.3282 56 54.4116 56 54.4976 56C54.4976 56.9924 54.4976 57.9849 54.4976 59.0074C54.2473 58.7947 53.9971 58.5821 53.7393 58.363C53.8227 58.2212 53.9061 58.0794 53.992 57.9333C54.0488 57.6032 54.0952 57.2718 54.1342 56.9398C54.1554 56.7643 54.1766 56.5887 54.1984 56.4078C54.2137 56.2732 54.229 56.1387 54.2448 56Z" fill="#ACBFF5"/>
<path d="M125.022 83.2812C124.101 83.8031 123.578 83.7456 122.494 83.7109C122.494 83.5691 122.494 83.4273 122.494 83.2812C123.324 82.9286 124.118 83.1698 125.022 83.2812Z" fill="#5C64B7"/>
<path d="M135.892 70.6074C136.517 70.7138 136.517 70.7138 137.155 70.8222C137.155 71.1767 137.155 71.5311 137.155 71.8963C136.822 71.9672 136.488 72.0381 136.144 72.1111C136.311 71.8985 136.478 71.6858 136.65 71.4667C136.567 71.254 136.483 71.0413 136.397 70.8222C136.23 70.7513 136.063 70.6805 135.892 70.6074Z" fill="#6365C2"/>
<path d="M8.30252 25.3487C8.52149 25.4218 8.52149 25.4218 8.74488 25.4964C8.49463 25.8154 8.49463 25.8154 8.23932 26.1408C7.48857 26.0345 7.48857 26.0345 6.72266 25.926C7.59377 25.265 7.59377 25.265 8.30252 25.3487Z" fill="#7280D2"/>
<path d="M103.536 80.4888C104.203 80.4888 104.871 80.4888 105.558 80.4888C104.91 81.0399 104.427 81.0345 103.536 81.1332C103.536 80.9205 103.536 80.7079 103.536 80.4888Z" fill="#ADBFFB"/>
<path d="M37.3088 63.3037C37.3088 63.6582 37.3088 64.0126 37.3088 64.3778C37.2254 64.236 37.142 64.0942 37.056 63.9482C36.7224 64.019 36.3887 64.0899 36.0449 64.163C36.0449 63.9503 36.0449 63.7376 36.0449 63.5185C36.5505 63.3037 36.5505 63.3037 37.3088 63.3037Z" fill="#D2D8EE"/>
<path d="M54.2448 61.1558C54.3282 61.1558 54.4116 61.1558 54.4976 61.1558C54.581 62.0773 54.6644 62.9989 54.7504 63.9484C54.667 63.9484 54.5835 63.9484 54.4976 63.9484C54.4663 63.78 54.435 63.6116 54.4028 63.4382C54.2976 62.8441 54.2976 62.8441 53.7393 62.4447C53.9061 62.4447 54.0729 62.4447 54.2448 62.4447C54.2448 62.0193 54.2448 61.594 54.2448 61.1558Z" fill="#ACB5DB"/>
<path d="M48.6834 40.5332C48.6834 40.7459 48.6834 40.9585 48.6834 41.1776C47.2299 41.4193 47.2299 41.4193 46.6611 41.1776C47.8302 40.5332 47.8302 40.5332 48.6834 40.5332Z" fill="#5B5FAB"/>
</g>
<defs>
<clipPath id="clip0_1857_7182">
<rect width="273" height="232" fill="white" transform="translate(-59 -60)"/>
</clipPath>
</defs>
</svg>
